# MagicaVoxel @ Ephtracy

# group
o 

# material
mtllib chicken.mtl
usemtl palette

# normals
vn -1 0 0
vn 1 0 0
vn 0 0 1
vn 0 0 -1
vn 0 -1 0
vn 0 1 0

# texcoords
vt 0.0917969 0.5
vt 0.841797 0.5
vt 0.955078 0.5
vt 0.958984 0.5

# verts
v 1.2 2.6 -1.3
v 1.2 2.6 -1.7
v 1.2 3 -1.3
v 1.2 3 -1.7
v 1.4 2.5 -0.8
v 1.4 2.5 -2.2
v 1.4 2.6 -1.3
v 1.4 2.6 -1.7
v 1.4 3 -1.3
v 1.4 3 -1.7
v 1.4 3.1 -0.8
v 1.4 3.1 -2.2
v 1.5 2.6 -2.2
v 1.5 2.6 -2.4
v 1.5 3 -2.2
v 1.5 3 -2.4
v 1.6 2.6 -0.6
v 1.6 2.6 -0.8
v 1.6 3 -0.6
v 1.6 3 -0.8
v 1.7 3.1 -0.8
v 1.7 3.1 -2.2
v 1.7 3.8 -0.8
v 1.7 3.8 -2.2
v 1.8 3.8 -1.4
v 1.8 3.8 -1.6
v 1.8 4 -1.4
v 1.8 4 -1.6
v 2 2 -0.8
v 2 2 -1.1
v 2 2 -1.9
v 2 2 -2.2
v 2 2.1 -0.8
v 2 2.1 -1.1
v 2 2.1 -1.9
v 2 2.1 -2.2
v 2.1 2.1 -0.9
v 2.1 2.1 -1
v 2.1 2.1 -2
v 2.1 2.1 -2.1
v 2.1 2.5 -0.9
v 2.1 2.5 -1
v 2.1 2.5 -2
v 2.1 2.5 -2.1
v 2.1 2.6 -0.6
v 2.1 2.6 -0.8
v 2.1 2.6 -2.2
v 2.1 2.6 -2.4
v 2.1 3 -0.6
v 2.1 3 -0.8
v 2.1 3 -2.2
v 2.1 3 -2.4
v 2.2 2.1 -0.9
v 2.2 2.1 -1
v 2.2 2.1 -2
v 2.2 2.1 -2.1
v 2.2 2.5 -0.9
v 2.2 2.5 -1
v 2.2 2.5 -2
v 2.2 2.5 -2.1
v 2.2 3.8 -1.4
v 2.2 3.8 -1.6
v 2.2 4 -1.4
v 2.2 4 -1.6
v 2.3 2 -0.9
v 2.3 2 -1
v 2.3 2 -2
v 2.3 2 -2.1
v 2.3 2.1 -0.9
v 2.3 2.1 -1
v 2.3 2.1 -2
v 2.3 2.1 -2.1
v 2.3 2.5 -0.8
v 2.3 2.5 -2.2
v 2.3 3.3 -1.4
v 2.3 3.3 -1.6
v 2.3 3.5 -1.4
v 2.3 3.5 -1.6
v 2.3 3.7 -1.4
v 2.3 3.7 -1.6
v 2.3 3.8 -0.8
v 2.3 3.8 -2.2
v 2.5 2 -0.8
v 2.5 2 -0.9
v 2.5 2 -1
v 2.5 2 -1.1
v 2.5 2 -1.9
v 2.5 2 -2
v 2.5 2 -2.1
v 2.5 2 -2.2
v 2.5 2.1 -0.8
v 2.5 2.1 -0.9
v 2.5 2.1 -1
v 2.5 2.1 -1.1
v 2.5 2.1 -1.9
v 2.5 2.1 -2
v 2.5 2.1 -2.1
v 2.5 2.1 -2.2
v 2.5 3.3 -1.4
v 2.5 3.3 -1.6
v 2.5 3.5 -1.4
v 2.5 3.5 -1.6
v 2.6 3.5 -1.4
v 2.6 3.5 -1.6
v 2.6 3.7 -1.4
v 2.6 3.7 -1.6
v 1.6 2.6 -0.6
v 1.6 3 -0.6
v 2.1 2.6 -0.6
v 2.1 3 -0.6
v 1.4 2.5 -0.8
v 1.4 3.1 -0.8
v 1.6 2.6 -0.8
v 1.6 3 -0.8
v 1.7 3.1 -0.8
v 1.7 3.8 -0.8
v 2 2 -0.8
v 2 2.1 -0.8
v 2.1 2.6 -0.8
v 2.1 3 -0.8
v 2.1 3.6 -0.8
v 2.1 3.7 -0.8
v 2.2 3.6 -0.8
v 2.2 3.7 -0.8
v 2.3 2.5 -0.8
v 2.3 3.8 -0.8
v 2.5 2 -0.8
v 2.5 2.1 -0.8
v 2.1 2.1 -0.9
v 2.1 2.5 -0.9
v 2.2 2.1 -0.9
v 2.2 2.5 -0.9
v 2.3 2 -1
v 2.3 2.1 -1
v 2.5 2 -1
v 2.5 2.1 -1
v 1.2 2.6 -1.3
v 1.2 3 -1.3
v 1.4 2.6 -1.3
v 1.4 3 -1.3
v 1.8 3.8 -1.4
v 1.8 4 -1.4
v 2.2 3.8 -1.4
v 2.2 4 -1.4
v 2.3 3.3 -1.4
v 2.3 3.5 -1.4
v 2.3 3.7 -1.4
v 2.5 3.3 -1.4
v 2.5 3.5 -1.4
v 2.6 3.5 -1.4
v 2.6 3.7 -1.4
v 2 2 -1.9
v 2 2.1 -1.9
v 2.5 2 -1.9
v 2.5 2.1 -1.9
v 2.1 2.1 -2
v 2.1 2.5 -2
v 2.2 2.1 -2
v 2.2 2.5 -2
v 2.3 2 -2.1
v 2.3 2.1 -2.1
v 2.5 2 -2.1
v 2.5 2.1 -2.1
v 2.3 2 -0.9
v 2.3 2.1 -0.9
v 2.5 2 -0.9
v 2.5 2.1 -0.9
v 2.1 2.1 -1
v 2.1 2.5 -1
v 2.2 2.1 -1
v 2.2 2.5 -1
v 2 2 -1.1
v 2 2.1 -1.1
v 2.5 2 -1.1
v 2.5 2.1 -1.1
v 1.8 3.8 -1.6
v 1.8 4 -1.6
v 2.2 3.8 -1.6
v 2.2 4 -1.6
v 2.3 3.3 -1.6
v 2.3 3.5 -1.6
v 2.3 3.7 -1.6
v 2.5 3.3 -1.6
v 2.5 3.5 -1.6
v 2.6 3.5 -1.6
v 2.6 3.7 -1.6
v 1.2 2.6 -1.7
v 1.2 3 -1.7
v 1.4 2.6 -1.7
v 1.4 3 -1.7
v 2.3 2 -2
v 2.3 2.1 -2
v 2.5 2 -2
v 2.5 2.1 -2
v 2.1 2.1 -2.1
v 2.1 2.5 -2.1
v 2.2 2.1 -2.1
v 2.2 2.5 -2.1
v 1.4 2.5 -2.2
v 1.4 3.1 -2.2
v 1.5 2.6 -2.2
v 1.5 3 -2.2
v 1.7 3.1 -2.2
v 1.7 3.8 -2.2
v 2 2 -2.2
v 2 2.1 -2.2
v 2.1 2.6 -2.2
v 2.1 3 -2.2
v 2.1 3.6 -2.2
v 2.1 3.7 -2.2
v 2.2 3.6 -2.2
v 2.2 3.7 -2.2
v 2.3 2.5 -2.2
v 2.3 3.8 -2.2
v 2.5 2 -2.2
v 2.5 2.1 -2.2
v 1.5 2.6 -2.4
v 1.5 3 -2.4
v 2.1 2.6 -2.4
v 2.1 3 -2.4
v 2 2 -0.8
v 2.5 2 -0.8
v 2.3 2 -0.9
v 2.5 2 -0.9
v 2.3 2 -1
v 2.5 2 -1
v 2 2 -1.1
v 2.5 2 -1.1
v 2 2 -1.9
v 2.5 2 -1.9
v 2.3 2 -2
v 2.5 2 -2
v 2.3 2 -2.1
v 2.5 2 -2.1
v 2 2 -2.2
v 2.5 2 -2.2
v 1.4 2.5 -0.8
v 2.3 2.5 -0.8
v 2.1 2.5 -0.9
v 2.2 2.5 -0.9
v 2.1 2.5 -1
v 2.2 2.5 -1
v 2.1 2.5 -2
v 2.2 2.5 -2
v 2.1 2.5 -2.1
v 2.2 2.5 -2.1
v 1.4 2.5 -2.2
v 2.3 2.5 -2.2
v 1.6 2.6 -0.6
v 2.1 2.6 -0.6
v 1.6 2.6 -0.8
v 2.1 2.6 -0.8
v 1.2 2.6 -1.3
v 1.4 2.6 -1.3
v 1.2 2.6 -1.7
v 1.4 2.6 -1.7
v 1.5 2.6 -2.2
v 2.1 2.6 -2.2
v 1.5 2.6 -2.4
v 2.1 2.6 -2.4
v 2.3 3.3 -1.4
v 2.5 3.3 -1.4
v 2.3 3.3 -1.6
v 2.5 3.3 -1.6
v 2.5 3.5 -1.4
v 2.6 3.5 -1.4
v 2.5 3.5 -1.6
v 2.6 3.5 -1.6
v 2 2.1 -0.8
v 2.5 2.1 -0.8
v 2.1 2.1 -0.9
v 2.2 2.1 -0.9
v 2.3 2.1 -0.9
v 2.5 2.1 -0.9
v 2.1 2.1 -1
v 2.2 2.1 -1
v 2.3 2.1 -1
v 2.5 2.1 -1
v 2 2.1 -1.1
v 2.5 2.1 -1.1
v 2 2.1 -1.9
v 2.5 2.1 -1.9
v 2.1 2.1 -2
v 2.2 2.1 -2
v 2.3 2.1 -2
v 2.5 2.1 -2
v 2.1 2.1 -2.1
v 2.2 2.1 -2.1
v 2.3 2.1 -2.1
v 2.5 2.1 -2.1
v 2 2.1 -2.2
v 2.5 2.1 -2.2
v 1.6 3 -0.6
v 2.1 3 -0.6
v 1.6 3 -0.8
v 2.1 3 -0.8
v 1.2 3 -1.3
v 1.4 3 -1.3
v 1.2 3 -1.7
v 1.4 3 -1.7
v 1.5 3 -2.2
v 2.1 3 -2.2
v 1.5 3 -2.4
v 2.1 3 -2.4
v 1.4 3.1 -0.8
v 1.7 3.1 -0.8
v 1.4 3.1 -2.2
v 1.7 3.1 -2.2
v 2.3 3.7 -1.4
v 2.6 3.7 -1.4
v 2.3 3.7 -1.6
v 2.6 3.7 -1.6
v 1.7 3.8 -0.8
v 2.3 3.8 -0.8
v 1.8 3.8 -1.4
v 2.2 3.8 -1.4
v 1.8 3.8 -1.6
v 2.2 3.8 -1.6
v 1.7 3.8 -2.2
v 2.3 3.8 -2.2
v 1.8 4 -1.4
v 2.2 4 -1.4
v 1.8 4 -1.6
v 2.2 4 -1.6

# faces
f 3/4/1 2/4/1 1/4/1
f 4/4/1 2/4/1 3/4/1
f 7/4/1 6/4/1 5/4/1
f 8/4/1 6/4/1 7/4/1
f 9/4/1 7/4/1 5/4/1
f 10/4/1 6/4/1 8/4/1
f 11/4/1 9/4/1 5/4/1
f 11/4/1 10/4/1 9/4/1
f 12/4/1 6/4/1 10/4/1
f 12/4/1 10/4/1 11/4/1
f 15/4/1 14/4/1 13/4/1
f 16/4/1 14/4/1 15/4/1
f 19/4/1 18/4/1 17/4/1
f 20/4/1 18/4/1 19/4/1
f 23/4/1 22/4/1 21/4/1
f 24/4/1 22/4/1 23/4/1
f 27/2/1 26/2/1 25/2/1
f 28/2/1 26/2/1 27/2/1
f 33/1/1 30/1/1 29/1/1
f 34/1/1 30/1/1 33/1/1
f 35/1/1 32/1/1 31/1/1
f 36/1/1 32/1/1 35/1/1
f 41/1/1 38/1/1 37/1/1
f 42/1/1 38/1/1 41/1/1
f 43/1/1 40/1/1 39/1/1
f 44/1/1 40/1/1 43/1/1
f 45/4/2 46/4/2 49/4/2
f 49/4/2 46/4/2 50/4/2
f 47/4/2 48/4/2 51/4/2
f 51/4/2 48/4/2 52/4/2
f 53/1/2 54/1/2 57/1/2
f 57/1/2 54/1/2 58/1/2
f 55/1/2 56/1/2 59/1/2
f 59/1/2 56/1/2 60/1/2
f 61/2/2 62/2/2 63/2/2
f 63/2/2 62/2/2 64/2/2
f 65/1/2 66/1/2 69/1/2
f 69/1/2 66/1/2 70/1/2
f 67/1/2 68/1/2 71/1/2
f 71/1/2 68/1/2 72/1/2
f 73/4/2 74/4/2 75/4/2
f 75/4/2 74/4/2 76/4/2
f 73/4/2 75/4/2 77/4/2
f 76/4/2 74/4/2 78/4/2
f 73/4/2 77/4/2 79/4/2
f 78/4/2 74/4/2 80/4/2
f 73/4/2 79/4/2 81/4/2
f 79/4/2 80/4/2 81/4/2
f 80/4/2 74/4/2 82/4/2
f 81/4/2 80/4/2 82/4/2
f 83/1/2 84/1/2 91/1/2
f 91/1/2 84/1/2 92/1/2
f 85/1/2 86/1/2 93/1/2
f 93/1/2 86/1/2 94/1/2
f 87/1/2 88/1/2 95/1/2
f 95/1/2 88/1/2 96/1/2
f 89/1/2 90/1/2 97/1/2
f 97/1/2 90/1/2 98/1/2
f 99/2/2 100/2/2 101/2/2
f 101/2/2 100/2/2 102/2/2
f 103/1/2 104/1/2 105/1/2
f 105/1/2 104/1/2 106/1/2
f 109/4/3 108/4/3 107/4/3
f 110/4/3 108/4/3 109/4/3
f 113/4/3 112/4/3 111/4/3
f 114/4/3 112/4/3 113/4/3
f 115/4/3 112/4/3 114/4/3
f 119/4/3 113/4/3 111/4/3
f 120/4/3 115/4/3 114/4/3
f 120/4/3 116/4/3 115/4/3
f 121/4/3 116/4/3 120/4/3
f 122/4/3 116/4/3 121/4/3
f 123/4/3 120/4/3 119/4/3
f 123/4/3 121/4/3 120/4/3
f 123/3/3 122/3/3 121/3/3
f 124/4/3 116/4/3 122/4/3
f 124/3/3 122/3/3 123/3/3
f 125/4/3 119/4/3 111/4/3
f 125/4/3 123/4/3 119/4/3
f 125/4/3 124/4/3 123/4/3
f 126/4/3 116/4/3 124/4/3
f 126/4/3 124/4/3 125/4/3
f 127/1/3 118/1/3 117/1/3
f 128/1/3 118/1/3 127/1/3
f 131/1/3 130/1/3 129/1/3
f 132/1/3 130/1/3 131/1/3
f 135/1/3 134/1/3 133/1/3
f 136/1/3 134/1/3 135/1/3
f 139/4/3 138/4/3 137/4/3
f 140/4/3 138/4/3 139/4/3
f 143/2/3 142/2/3 141/2/3
f 144/2/3 142/2/3 143/2/3
f 148/2/3 146/2/3 145/2/3
f 149/1/3 147/1/3 146/1/3
f 149/2/3 146/2/3 148/2/3
f 150/1/3 147/1/3 149/1/3
f 151/1/3 147/1/3 150/1/3
f 154/1/3 153/1/3 152/1/3
f 155/1/3 153/1/3 154/1/3
f 158/1/3 157/1/3 156/1/3
f 159/1/3 157/1/3 158/1/3
f 162/1/3 161/1/3 160/1/3
f 163/1/3 161/1/3 162/1/3
f 164/1/4 165/1/4 166/1/4
f 166/1/4 165/1/4 167/1/4
f 168/1/4 169/1/4 170/1/4
f 170/1/4 169/1/4 171/1/4
f 172/1/4 173/1/4 174/1/4
f 174/1/4 173/1/4 175/1/4
f 176/2/4 177/2/4 178/2/4
f 178/2/4 177/2/4 179/2/4
f 180/2/4 181/2/4 183/2/4
f 181/1/4 182/1/4 184/1/4
f 183/2/4 181/2/4 184/2/4
f 184/1/4 182/1/4 185/1/4
f 185/1/4 182/1/4 186/1/4
f 187/4/4 188/4/4 189/4/4
f 189/4/4 188/4/4 190/4/4
f 191/1/4 192/1/4 193/1/4
f 193/1/4 192/1/4 194/1/4
f 195/1/4 196/1/4 197/1/4
f 197/1/4 196/1/4 198/1/4
f 199/4/4 200/4/4 201/4/4
f 201/4/4 200/4/4 202/4/4
f 202/4/4 200/4/4 203/4/4
f 199/4/4 201/4/4 207/4/4
f 202/4/4 203/4/4 208/4/4
f 203/4/4 204/4/4 208/4/4
f 208/4/4 204/4/4 209/4/4
f 209/4/4 204/4/4 210/4/4
f 207/4/4 208/4/4 211/4/4
f 208/4/4 209/4/4 211/4/4
f 209/3/4 210/3/4 211/3/4
f 210/4/4 204/4/4 212/4/4
f 211/3/4 210/3/4 212/3/4
f 199/4/4 207/4/4 213/4/4
f 207/4/4 211/4/4 213/4/4
f 211/4/4 212/4/4 213/4/4
f 212/4/4 204/4/4 214/4/4
f 213/4/4 212/4/4 214/4/4
f 205/1/4 206/1/4 215/1/4
f 215/1/4 206/1/4 216/1/4
f 217/4/4 218/4/4 219/4/4
f 219/4/4 218/4/4 220/4/4
f 223/1/5 222/1/5 221/1/5
f 224/1/5 222/1/5 223/1/5
f 225/1/5 223/1/5 221/1/5
f 227/1/5 225/1/5 221/1/5
f 227/1/5 226/1/5 225/1/5
f 228/1/5 226/1/5 227/1/5
f 231/1/5 230/1/5 229/1/5
f 232/1/5 230/1/5 231/1/5
f 233/1/5 231/1/5 229/1/5
f 235/1/5 233/1/5 229/1/5
f 235/1/5 234/1/5 233/1/5
f 236/1/5 234/1/5 235/1/5
f 239/4/5 238/4/5 237/4/5
f 240/4/5 238/4/5 239/4/5
f 241/4/5 239/4/5 237/4/5
f 242/4/5 238/4/5 240/4/5
f 243/4/5 241/4/5 237/4/5
f 243/4/5 242/4/5 241/4/5
f 244/4/5 238/4/5 242/4/5
f 244/4/5 242/4/5 243/4/5
f 245/4/5 243/4/5 237/4/5
f 246/4/5 238/4/5 244/4/5
f 247/4/5 245/4/5 237/4/5
f 247/4/5 246/4/5 245/4/5
f 248/4/5 238/4/5 246/4/5
f 248/4/5 246/4/5 247/4/5
f 251/4/5 250/4/5 249/4/5
f 252/4/5 250/4/5 251/4/5
f 255/4/5 254/4/5 253/4/5
f 256/4/5 254/4/5 255/4/5
f 259/4/5 258/4/5 257/4/5
f 260/4/5 258/4/5 259/4/5
f 263/2/5 262/2/5 261/2/5
f 264/2/5 262/2/5 263/2/5
f 267/1/5 266/1/5 265/1/5
f 268/1/5 266/1/5 267/1/5
f 269/1/6 270/1/6 271/1/6
f 271/1/6 270/1/6 272/1/6
f 272/1/6 270/1/6 273/1/6
f 273/1/6 270/1/6 274/1/6
f 269/1/6 271/1/6 275/1/6
f 272/1/6 273/1/6 276/1/6
f 276/1/6 273/1/6 277/1/6
f 269/1/6 275/1/6 279/1/6
f 277/1/6 278/1/6 279/1/6
f 276/1/6 277/1/6 279/1/6
f 275/1/6 276/1/6 279/1/6
f 279/1/6 278/1/6 280/1/6
f 281/1/6 282/1/6 283/1/6
f 283/1/6 282/1/6 284/1/6
f 284/1/6 282/1/6 285/1/6
f 285/1/6 282/1/6 286/1/6
f 281/1/6 283/1/6 287/1/6
f 284/1/6 285/1/6 288/1/6
f 288/1/6 285/1/6 289/1/6
f 281/1/6 287/1/6 291/1/6
f 289/1/6 290/1/6 291/1/6
f 288/1/6 289/1/6 291/1/6
f 287/1/6 288/1/6 291/1/6
f 291/1/6 290/1/6 292/1/6
f 293/4/6 294/4/6 295/4/6
f 295/4/6 294/4/6 296/4/6
f 297/4/6 298/4/6 299/4/6
f 299/4/6 298/4/6 300/4/6
f 301/4/6 302/4/6 303/4/6
f 303/4/6 302/4/6 304/4/6
f 305/4/6 306/4/6 307/4/6
f 307/4/6 306/4/6 308/4/6
f 309/1/6 310/1/6 311/1/6
f 311/1/6 310/1/6 312/1/6
f 313/4/6 314/4/6 315/4/6
f 315/4/6 314/4/6 316/4/6
f 313/4/6 315/4/6 317/4/6
f 316/4/6 314/4/6 318/4/6
f 313/4/6 317/4/6 319/4/6
f 317/4/6 318/4/6 319/4/6
f 318/4/6 314/4/6 320/4/6
f 319/4/6 318/4/6 320/4/6
f 321/2/6 322/2/6 323/2/6
f 323/2/6 322/2/6 324/2/6
