# Blender v2.81 (sub 16) OBJ File: ''
# www.blender.org
mtllib Test.mtl
o Cube
v -1.000000 1.000000 1.000000
v -1.000000 -1.000000 1.000000
l 1 2
o ObjObject
v 0.000000 3.000000 -0.500000
v 0.000000 2.600000 -0.700000
v 0.000000 2.600000 -0.500000
v 0.000000 3.000000 -0.700000
v 0.200000 2.600000 -0.500000
v 0.200000 2.500000 -1.000000
v 0.200000 2.500000 -0.200000
v 0.200000 2.600000 -0.700000
v 0.200000 3.000000 -0.500000
v 0.200000 3.000000 -0.700000
v 0.200000 3.100000 -0.199999
v 0.200000 3.100000 -1.000000
v 0.300000 3.000000 -1.000000
v 0.300000 2.600000 -1.200000
v 0.300000 2.600000 -1.000000
v 0.300000 3.000000 -1.200000
v 0.400000 3.000000 0.000000
v 0.400000 2.600000 -0.200000
v 0.400000 2.600000 0.000000
v 0.400000 3.000000 -0.200000
v 0.500000 3.800000 -0.199999
v 0.500000 3.100000 -1.000000
v 0.500000 3.100000 -0.199999
v 0.500000 3.800000 -0.999999
v 0.600000 4.000000 -0.499999
v 0.600000 3.800000 -0.699999
v 0.600000 3.800000 -0.499999
v 0.600000 4.000000 -0.699999
v 0.800000 2.100000 -0.200000
v 0.800000 2.000000 -0.500000
v 0.800000 2.000000 -0.200000
v 0.800000 2.100000 -0.500000
v 0.800000 2.100000 -0.700000
v 0.800000 2.000000 -1.000000
v 0.800000 2.000000 -0.700000
v 0.800000 2.100000 -1.000000
v 0.900000 2.500000 -0.300000
v 0.900000 2.100000 -0.400000
v 0.900000 2.100000 -0.300000
v 0.900000 2.500000 -0.400000
v 0.900000 2.500000 -0.800000
v 0.900000 2.100000 -0.900000
v 0.900000 2.100000 -0.800000
v 0.900000 2.500000 -0.900000
v 0.900000 2.600000 0.000000
v 0.900000 2.600000 -0.200000
v 0.900000 3.000000 0.000000
v 0.900000 3.000000 -0.200000
v 0.900000 2.600000 -1.000000
v 0.900000 2.600000 -1.200000
v 0.900000 3.000000 -1.000000
v 0.900000 3.000000 -1.200000
v 1.000000 2.100000 -0.300000
v 1.000000 2.100000 -0.400000
v 1.000000 2.500000 -0.300000
v 1.000000 2.500000 -0.400000
v 1.000000 2.100000 -0.800000
v 1.000000 2.100000 -0.900000
v 1.000000 2.500000 -0.800000
v 1.000000 2.500000 -0.900000
v 1.000000 3.800000 -0.499999
v 1.000000 3.800000 -0.699999
v 1.000000 4.000000 -0.499999
v 1.000000 4.000000 -0.699999
v 1.100000 2.000000 -0.300000
v 1.100000 2.000000 -0.400000
v 1.100000 2.100000 -0.300000
v 1.100000 2.100000 -0.400000
v 1.100000 2.000000 -0.800000
v 1.100000 2.000000 -0.900000
v 1.100000 2.100000 -0.800000
v 1.100000 2.100000 -0.900000
v 1.100000 2.500000 -0.200000
v 1.100000 2.500000 -1.000000
v 1.100000 3.300000 -0.499999
v 1.100000 3.300000 -0.699999
v 1.100000 3.500000 -0.499999
v 1.100000 3.500000 -0.699999
v 1.100000 3.700000 -0.499999
v 1.100000 3.700000 -0.699999
v 1.100000 3.800000 -0.199999
v 1.100000 3.800000 -0.999999
v 1.300000 2.000000 -0.200000
v 1.300000 2.000000 -0.300000
v 1.300000 2.100000 -0.200000
v 1.300000 2.100000 -0.300000
v 1.300000 2.000000 -0.400000
v 1.300000 2.000000 -0.500000
v 1.300000 2.100000 -0.400000
v 1.300000 2.100000 -0.500000
v 1.300000 2.000000 -0.700000
v 1.300000 2.000000 -0.800000
v 1.300000 2.100000 -0.700000
v 1.300000 2.100000 -0.800000
v 1.300000 2.000000 -0.900000
v 1.300000 2.000000 -1.000000
v 1.300000 2.100000 -0.900000
v 1.300000 2.100000 -1.000000
v 1.300000 3.300000 -0.499999
v 1.300000 3.300000 -0.699999
v 1.300000 3.500000 -0.499999
v 1.300000 3.500000 -0.699999
v 1.400000 3.500000 -0.499999
v 1.400000 3.500000 -0.699999
v 1.400000 3.700000 -0.499999
v 1.400000 3.700000 -0.699999
v 0.900000 2.600000 0.000000
v 0.400000 3.000000 0.000000
v 0.400000 2.600000 0.000000
v 0.900000 3.000000 0.000000
v 0.400000 2.600000 -0.200000
v 0.200000 3.100000 -0.199999
v 0.200000 2.500000 -0.200000
v 0.400000 3.000000 -0.200000
v 0.500000 3.100000 -0.199999
v 0.900000 2.600000 -0.200000
v 0.900000 3.000000 -0.200000
v 0.500000 3.800000 -0.199999
v 0.900000 3.600000 -0.199999
v 0.900000 3.700000 -0.199999
v 1.000000 3.600000 -0.199999
v 1.000000 3.700000 -0.199999
v 1.100000 2.500000 -0.200000
v 1.100000 3.800000 -0.199999
v 1.300000 2.000000 -0.200000
v 0.800000 2.100000 -0.200000
v 0.800000 2.000000 -0.200000
v 1.300000 2.100000 -0.200000
v 1.000000 2.100000 -0.300000
v 0.900000 2.500000 -0.300000
v 0.900000 2.100000 -0.300000
v 1.000000 2.500000 -0.300000
v 1.300000 2.000000 -0.400000
v 1.100000 2.100000 -0.400000
v 1.100000 2.000000 -0.400000
v 1.300000 2.100000 -0.400000
v 0.200000 2.600000 -0.500000
v 0.000000 3.000000 -0.500000
v 0.000000 2.600000 -0.500000
v 0.200000 3.000000 -0.500000
v 1.000000 3.800000 -0.499999
v 0.600000 4.000000 -0.499999
v 0.600000 3.800000 -0.499999
v 1.000000 4.000000 -0.499999
v 1.300000 3.300000 -0.499999
v 1.100000 3.500000 -0.499999
v 1.100000 3.300000 -0.499999
v 1.300000 3.500000 -0.499999
v 1.100000 3.700000 -0.499999
v 1.400000 3.500000 -0.499999
v 1.400000 3.700000 -0.499999
v 1.300000 2.000000 -0.700000
v 0.800000 2.100000 -0.700000
v 0.800000 2.000000 -0.700000
v 1.300000 2.100000 -0.700000
v 1.000000 2.100000 -0.800000
v 0.900000 2.500000 -0.800000
v 0.900000 2.100000 -0.800000
v 1.000000 2.500000 -0.800000
v 1.300000 2.000000 -0.900000
v 1.100000 2.100000 -0.900000
v 1.100000 2.000000 -0.900000
v 1.300000 2.100000 -0.900000
v 1.100000 2.000000 -0.300000
v 1.100000 2.100000 -0.300000
v 1.300000 2.000000 -0.300000
v 1.300000 2.100000 -0.300000
v 0.900000 2.100000 -0.400000
v 0.900000 2.500000 -0.400000
v 1.000000 2.100000 -0.400000
v 1.000000 2.500000 -0.400000
v 0.800000 2.000000 -0.500000
v 0.800000 2.100000 -0.500000
v 1.300000 2.000000 -0.500000
v 1.300000 2.100000 -0.500000
v 0.000000 2.600000 -0.700000
v 0.000000 3.000000 -0.700000
v 0.200000 2.600000 -0.700000
v 0.200000 3.000000 -0.700000
v 0.600000 3.800000 -0.699999
v 0.600000 4.000000 -0.699999
v 1.000000 3.800000 -0.699999
v 1.000000 4.000000 -0.699999
v 1.100000 3.300000 -0.699999
v 1.100000 3.500000 -0.699999
v 1.300000 3.300000 -0.699999
v 1.100000 3.700000 -0.699999
v 1.300000 3.500000 -0.699999
v 1.400000 3.500000 -0.699999
v 1.400000 3.700000 -0.699999
v 1.100000 2.000000 -0.800000
v 1.100000 2.100000 -0.800000
v 1.300000 2.000000 -0.800000
v 1.300000 2.100000 -0.800000
v 0.900000 2.100000 -0.900000
v 0.900000 2.500000 -0.900000
v 1.000000 2.100000 -0.900000
v 1.000000 2.500000 -0.900000
v 0.200000 2.500000 -1.000000
v 0.200000 3.100000 -1.000000
v 0.300000 2.600000 -1.000000
v 0.300000 3.000000 -1.000000
v 0.500000 3.100000 -1.000000
v 0.900000 2.600000 -1.000000
v 0.900000 3.000000 -1.000000
v 0.500000 3.800000 -0.999999
v 0.900000 3.600000 -0.999999
v 0.900000 3.700000 -0.999999
v 1.000000 3.600000 -0.999999
v 1.000000 3.700000 -0.999999
v 1.100000 2.500000 -1.000000
v 1.100000 3.800000 -0.999999
v 0.800000 2.000000 -1.000000
v 0.800000 2.100000 -1.000000
v 1.300000 2.000000 -1.000000
v 1.300000 2.100000 -1.000000
v 0.300000 2.600000 -1.200000
v 0.300000 3.000000 -1.200000
v 0.900000 2.600000 -1.200000
v 0.900000 3.000000 -1.200000
v 1.100000 2.000000 -0.300000
v 1.300000 2.000000 -0.200000
v 0.800000 2.000000 -0.200000
v 1.300000 2.000000 -0.300000
v 1.100000 2.000000 -0.400000
v 0.800000 2.000000 -0.500000
v 1.300000 2.000000 -0.400000
v 1.300000 2.000000 -0.500000
v 1.100000 2.000000 -0.800000
v 1.300000 2.000000 -0.700000
v 0.800000 2.000000 -0.700000
v 1.300000 2.000000 -0.800000
v 1.100000 2.000000 -0.900000
v 0.800000 2.000000 -1.000000
v 1.300000 2.000000 -0.900000
v 1.300000 2.000000 -1.000000
v 0.900000 2.500000 -0.300000
v 1.100000 2.500000 -0.200000
v 0.200000 2.500000 -0.200000
v 1.000000 2.500000 -0.300000
v 0.900000 2.500000 -0.400000
v 1.000000 2.500000 -0.400000
v 0.900000 2.500000 -0.800000
v 1.000000 2.500000 -0.800000
v 0.900000 2.500000 -0.900000
v 1.000000 2.500000 -0.900000
v 0.200000 2.500000 -1.000000
v 1.100000 2.500000 -1.000000
v 0.400000 2.600000 -0.200000
v 0.900000 2.600000 0.000000
v 0.400000 2.600000 0.000000
v 0.900000 2.600000 -0.200000
v 0.000000 2.600000 -0.700000
v 0.200000 2.600000 -0.500000
v 0.000000 2.600000 -0.500000
v 0.200000 2.600000 -0.700000
v 0.300000 2.600000 -1.200000
v 0.900000 2.600000 -1.000000
v 0.300000 2.600000 -1.000000
v 0.900000 2.600000 -1.200000
v 1.100000 3.300000 -0.699999
v 1.300000 3.300000 -0.499999
v 1.100000 3.300000 -0.499999
v 1.300000 3.300000 -0.699999
v 1.300000 3.500000 -0.699999
v 1.400000 3.500000 -0.499999
v 1.300000 3.500000 -0.499999
v 1.400000 3.500000 -0.699999
v 0.800000 2.100000 -0.200000
v 1.300000 2.100000 -0.200000
v 0.900000 2.100000 -0.300000
v 1.000000 2.100000 -0.300000
v 1.100000 2.100000 -0.300000
v 1.300000 2.100000 -0.300000
v 0.900000 2.100000 -0.400000
v 1.000000 2.100000 -0.400000
v 1.100000 2.100000 -0.400000
v 0.800000 2.100000 -0.500000
v 1.300000 2.100000 -0.400000
v 1.300000 2.100000 -0.500000
v 0.800000 2.100000 -0.700000
v 1.300000 2.100000 -0.700000
v 0.900000 2.100000 -0.800000
v 1.000000 2.100000 -0.800000
v 1.100000 2.100000 -0.800000
v 1.300000 2.100000 -0.800000
v 0.900000 2.100000 -0.900000
v 1.000000 2.100000 -0.900000
v 1.100000 2.100000 -0.900000
v 0.800000 2.100000 -1.000000
v 1.300000 2.100000 -0.900000
v 1.300000 2.100000 -1.000000
v 0.400000 3.000000 0.000000
v 0.900000 3.000000 0.000000
v 0.400000 3.000000 -0.200000
v 0.900000 3.000000 -0.200000
v 0.000000 3.000000 -0.500000
v 0.200000 3.000000 -0.500000
v 0.000000 3.000000 -0.700000
v 0.200000 3.000000 -0.700000
v 0.300000 3.000000 -1.000000
v 0.900000 3.000000 -1.000000
v 0.300000 3.000000 -1.200000
v 0.900000 3.000000 -1.200000
v 0.200000 3.100000 -0.199999
v 0.500000 3.100000 -0.199999
v 0.200000 3.100000 -1.000000
v 0.500000 3.100000 -1.000000
v 1.100000 3.700000 -0.499999
v 1.400000 3.700000 -0.499999
v 1.100000 3.700000 -0.699999
v 1.400000 3.700000 -0.699999
v 0.500000 3.800000 -0.199999
v 1.100000 3.800000 -0.199999
v 0.600000 3.800000 -0.499999
v 1.000000 3.800000 -0.499999
v 0.600000 3.800000 -0.699999
v 1.000000 3.800000 -0.699999
v 0.500000 3.800000 -0.999999
v 1.100000 3.800000 -0.999999
v 0.600000 4.000000 -0.499999
v 1.000000 4.000000 -0.499999
v 0.600000 4.000000 -0.699999
v 1.000000 4.000000 -0.699999
vt 0.958984 0.500000
vt 0.958984 0.500000
vt 0.958984 0.500000
vt 0.958984 0.500000
vt 0.958984 0.500000
vt 0.958984 0.500000
vt 0.958984 0.500000
vt 0.958984 0.500000
vt 0.958984 0.500000
vt 0.958984 0.500000
vt 0.958984 0.500000
vt 0.958984 0.500000
vt 0.958984 0.500000
vt 0.958984 0.500000
vt 0.958984 0.500000
vt 0.958984 0.500000
vt 0.958984 0.500000
vt 0.958984 0.500000
vt 0.958984 0.500000
vt 0.958984 0.500000
vt 0.958984 0.500000
vt 0.958984 0.500000
vt 0.958984 0.500000
vt 0.958984 0.500000
vt 0.841797 0.500000
vt 0.841797 0.500000
vt 0.841797 0.500000
vt 0.841797 0.500000
vt 0.091797 0.500000
vt 0.091797 0.500000
vt 0.091797 0.500000
vt 0.091797 0.500000
vt 0.091797 0.500000
vt 0.091797 0.500000
vt 0.091797 0.500000
vt 0.091797 0.500000
vt 0.091797 0.500000
vt 0.091797 0.500000
vt 0.091797 0.500000
vt 0.091797 0.500000
vt 0.091797 0.500000
vt 0.091797 0.500000
vt 0.091797 0.500000
vt 0.091797 0.500000
vt 0.958984 0.500000
vt 0.958984 0.500000
vt 0.958984 0.500000
vt 0.958984 0.500000
vt 0.958984 0.500000
vt 0.958984 0.500000
vt 0.958984 0.500000
vt 0.958984 0.500000
vt 0.091797 0.500000
vt 0.091797 0.500000
vt 0.091797 0.500000
vt 0.091797 0.500000
vt 0.091797 0.500000
vt 0.091797 0.500000
vt 0.091797 0.500000
vt 0.091797 0.500000
vt 0.841797 0.500000
vt 0.841797 0.500000
vt 0.841797 0.500000
vt 0.841797 0.500000
vt 0.091797 0.500000
vt 0.091797 0.500000
vt 0.091797 0.500000
vt 0.091797 0.500000
vt 0.091797 0.500000
vt 0.091797 0.500000
vt 0.091797 0.500000
vt 0.091797 0.500000
vt 0.958984 0.500000
vt 0.958984 0.500000
vt 0.958984 0.500000
vt 0.958984 0.500000
vt 0.958984 0.500000
vt 0.958984 0.500000
vt 0.958984 0.500000
vt 0.958984 0.500000
vt 0.958984 0.500000
vt 0.958984 0.500000
vt 0.091797 0.500000
vt 0.091797 0.500000
vt 0.091797 0.500000
vt 0.091797 0.500000
vt 0.091797 0.500000
vt 0.091797 0.500000
vt 0.091797 0.500000
vt 0.091797 0.500000
vt 0.091797 0.500000
vt 0.091797 0.500000
vt 0.091797 0.500000
vt 0.091797 0.500000
vt 0.091797 0.500000
vt 0.091797 0.500000
vt 0.091797 0.500000
vt 0.091797 0.500000
vt 0.841797 0.500000
vt 0.841797 0.500000
vt 0.841797 0.500000
vt 0.841797 0.500000
vt 0.091797 0.500000
vt 0.091797 0.500000
vt 0.091797 0.500000
vt 0.091797 0.500000
vt 0.958984 0.500000
vt 0.958984 0.500000
vt 0.958984 0.500000
vt 0.958984 0.500000
vt 0.958984 0.500000
vt 0.958984 0.500000
vt 0.958984 0.500000
vt 0.958984 0.500000
vt 0.958984 0.500000
vt 0.958984 0.500000
vt 0.958984 0.500000
vt 0.958984 0.500000
vt 0.958984 0.500000
vt 0.958984 0.500000
vt 0.958984 0.500000
vt 0.955078 0.500000
vt 0.955078 0.500000
vt 0.955078 0.500000
vt 0.958984 0.500000
vt 0.955078 0.500000
vt 0.958984 0.500000
vt 0.958984 0.500000
vt 0.091797 0.500000
vt 0.091797 0.500000
vt 0.091797 0.500000
vt 0.091797 0.500000
vt 0.091797 0.500000
vt 0.091797 0.500000
vt 0.091797 0.500000
vt 0.091797 0.500000
vt 0.091797 0.500000
vt 0.091797 0.500000
vt 0.091797 0.500000
vt 0.091797 0.500000
vt 0.958984 0.500000
vt 0.958984 0.500000
vt 0.958984 0.500000
vt 0.958984 0.500000
vt 0.841797 0.500000
vt 0.841797 0.500000
vt 0.841797 0.500000
vt 0.841797 0.500000
vt 0.841797 0.500000
vt 0.841797 0.500000
vt 0.841797 0.500000
vt 0.091797 0.500000
vt 0.091797 0.500000
vt 0.091797 0.500000
vt 0.841797 0.500000
vt 0.091797 0.500000
vt 0.091797 0.500000
vt 0.091797 0.500000
vt 0.091797 0.500000
vt 0.091797 0.500000
vt 0.091797 0.500000
vt 0.091797 0.500000
vt 0.091797 0.500000
vt 0.091797 0.500000
vt 0.091797 0.500000
vt 0.091797 0.500000
vt 0.091797 0.500000
vt 0.091797 0.500000
vt 0.091797 0.500000
vt 0.091797 0.500000
vt 0.091797 0.500000
vt 0.091797 0.500000
vt 0.091797 0.500000
vt 0.091797 0.500000
vt 0.091797 0.500000
vt 0.091797 0.500000
vt 0.091797 0.500000
vt 0.091797 0.500000
vt 0.091797 0.500000
vt 0.091797 0.500000
vt 0.091797 0.500000
vt 0.958984 0.500000
vt 0.958984 0.500000
vt 0.958984 0.500000
vt 0.958984 0.500000
vt 0.841797 0.500000
vt 0.841797 0.500000
vt 0.841797 0.500000
vt 0.841797 0.500000
vt 0.841797 0.500000
vt 0.841797 0.500000
vt 0.841797 0.500000
vt 0.091797 0.500000
vt 0.091797 0.500000
vt 0.091797 0.500000
vt 0.841797 0.500000
vt 0.091797 0.500000
vt 0.091797 0.500000
vt 0.091797 0.500000
vt 0.091797 0.500000
vt 0.091797 0.500000
vt 0.091797 0.500000
vt 0.091797 0.500000
vt 0.091797 0.500000
vt 0.091797 0.500000
vt 0.091797 0.500000
vt 0.958984 0.500000
vt 0.958984 0.500000
vt 0.958984 0.500000
vt 0.958984 0.500000
vt 0.958984 0.500000
vt 0.958984 0.500000
vt 0.958984 0.500000
vt 0.958984 0.500000
vt 0.958984 0.500000
vt 0.958984 0.500000
vt 0.958984 0.500000
vt 0.955078 0.500000
vt 0.955078 0.500000
vt 0.955078 0.500000
vt 0.958984 0.500000
vt 0.955078 0.500000
vt 0.958984 0.500000
vt 0.958984 0.500000
vt 0.091797 0.500000
vt 0.091797 0.500000
vt 0.091797 0.500000
vt 0.091797 0.500000
vt 0.958984 0.500000
vt 0.958984 0.500000
vt 0.958984 0.500000
vt 0.958984 0.500000
vt 0.091797 0.500000
vt 0.091797 0.500000
vt 0.091797 0.500000
vt 0.091797 0.500000
vt 0.091797 0.500000
vt 0.091797 0.500000
vt 0.091797 0.500000
vt 0.091797 0.500000
vt 0.091797 0.500000
vt 0.091797 0.500000
vt 0.091797 0.500000
vt 0.091797 0.500000
vt 0.091797 0.500000
vt 0.091797 0.500000
vt 0.091797 0.500000
vt 0.091797 0.500000
vt 0.958984 0.500000
vt 0.958984 0.500000
vt 0.958984 0.500000
vt 0.958984 0.500000
vt 0.958984 0.500000
vt 0.958984 0.500000
vt 0.958984 0.500000
vt 0.958984 0.500000
vt 0.958984 0.500000
vt 0.958984 0.500000
vt 0.958984 0.500000
vt 0.958984 0.500000
vt 0.958984 0.500000
vt 0.958984 0.500000
vt 0.958984 0.500000
vt 0.958984 0.500000
vt 0.958984 0.500000
vt 0.958984 0.500000
vt 0.958984 0.500000
vt 0.958984 0.500000
vt 0.958984 0.500000
vt 0.958984 0.500000
vt 0.958984 0.500000
vt 0.958984 0.500000
vt 0.841797 0.500000
vt 0.841797 0.500000
vt 0.841797 0.500000
vt 0.841797 0.500000
vt 0.091797 0.500000
vt 0.091797 0.500000
vt 0.091797 0.500000
vt 0.091797 0.500000
vt 0.091797 0.500000
vt 0.091797 0.500000
vt 0.091797 0.500000
vt 0.091797 0.500000
vt 0.091797 0.500000
vt 0.091797 0.500000
vt 0.091797 0.500000
vt 0.091797 0.500000
vt 0.091797 0.500000
vt 0.091797 0.500000
vt 0.091797 0.500000
vt 0.091797 0.500000
vt 0.091797 0.500000
vt 0.091797 0.500000
vt 0.091797 0.500000
vt 0.091797 0.500000
vt 0.091797 0.500000
vt 0.091797 0.500000
vt 0.091797 0.500000
vt 0.091797 0.500000
vt 0.091797 0.500000
vt 0.091797 0.500000
vt 0.091797 0.500000
vt 0.091797 0.500000
vt 0.958984 0.500000
vt 0.958984 0.500000
vt 0.958984 0.500000
vt 0.958984 0.500000
vt 0.958984 0.500000
vt 0.958984 0.500000
vt 0.958984 0.500000
vt 0.958984 0.500000
vt 0.958984 0.500000
vt 0.958984 0.500000
vt 0.958984 0.500000
vt 0.958984 0.500000
vt 0.958984 0.500000
vt 0.958984 0.500000
vt 0.958984 0.500000
vt 0.958984 0.500000
vt 0.091797 0.500000
vt 0.091797 0.500000
vt 0.091797 0.500000
vt 0.091797 0.500000
vt 0.958984 0.500000
vt 0.958984 0.500000
vt 0.958984 0.500000
vt 0.958984 0.500000
vt 0.958984 0.500000
vt 0.958984 0.500000
vt 0.958984 0.500000
vt 0.958984 0.500000
vt 0.841797 0.500000
vt 0.841797 0.500000
vt 0.841797 0.500000
vt 0.841797 0.500000
vn -1.0000 0.0000 0.0000
vn 1.0000 -0.0000 0.0000
vn 0.0000 -0.0000 1.0000
vn 0.0000 0.0000 -1.0000
vn 0.0000 -1.0000 0.0000
vn 0.0000 1.0000 0.0000
usemtl palette
s 1
f 3/1/1 4/2/1 5/3/1
f 6/4/1 4/2/1 3/1/1
f 7/5/1 8/6/1 9/7/1
f 10/8/1 8/6/1 7/5/1
f 11/9/1 7/5/1 9/7/1
f 12/10/1 8/6/1 10/8/1
f 13/11/1 11/9/1 9/7/1
f 13/11/1 12/10/1 11/9/1
f 14/12/1 8/6/1 12/10/1
f 14/12/1 12/10/1 13/11/1
f 15/13/1 16/14/1 17/15/1
f 18/16/1 16/14/1 15/13/1
f 19/17/1 20/18/1 21/19/1
f 22/20/1 20/18/1 19/17/1
f 23/21/1 24/22/1 25/23/1
f 26/24/1 24/22/1 23/21/1
f 27/25/1 28/26/1 29/27/1
f 30/28/1 28/26/1 27/25/1
f 31/29/1 32/30/1 33/31/1
f 34/32/1 32/30/1 31/29/1
f 35/33/1 36/34/1 37/35/1
f 38/36/1 36/34/1 35/33/1
f 39/37/1 40/38/1 41/39/1
f 42/40/1 40/38/1 39/37/1
f 43/41/1 44/42/1 45/43/1
f 46/44/1 44/42/1 43/41/1
f 47/45/2 48/46/2 49/47/2
f 49/47/2 48/46/2 50/48/2
f 51/49/2 52/50/2 53/51/2
f 53/51/2 52/50/2 54/52/2
f 55/53/2 56/54/2 57/55/2
f 57/55/2 56/54/2 58/56/2
f 59/57/2 60/58/2 61/59/2
f 61/59/2 60/58/2 62/60/2
f 63/61/2 64/62/2 65/63/2
f 65/63/2 64/62/2 66/64/2
f 67/65/2 68/66/2 69/67/2
f 69/67/2 68/66/2 70/68/2
f 71/69/2 72/70/2 73/71/2
f 73/71/2 72/70/2 74/72/2
f 75/73/2 76/74/2 77/75/2
f 77/75/2 76/74/2 78/76/2
f 75/73/2 77/75/2 79/77/2
f 78/76/2 76/74/2 80/78/2
f 75/73/2 79/77/2 81/79/2
f 80/78/2 76/74/2 82/80/2
f 75/73/2 81/79/2 83/81/2
f 81/79/2 82/80/2 83/81/2
f 82/80/2 76/74/2 84/82/2
f 83/81/2 82/80/2 84/82/2
f 85/83/2 86/84/2 87/85/2
f 87/85/2 86/84/2 88/86/2
f 89/87/2 90/88/2 91/89/2
f 91/89/2 90/88/2 92/90/2
f 93/91/2 94/92/2 95/93/2
f 95/93/2 94/92/2 96/94/2
f 97/95/2 98/96/2 99/97/2
f 99/97/2 98/96/2 100/98/2
f 101/99/2 102/100/2 103/101/2
f 103/101/2 102/100/2 104/102/2
f 105/103/2 106/104/2 107/105/2
f 107/105/2 106/104/2 108/106/2
f 109/107/3 110/108/3 111/109/3
f 112/110/3 110/108/3 109/107/3
f 113/111/3 114/112/3 115/113/3
f 116/114/3 114/112/3 113/111/3
f 117/115/3 114/112/3 116/114/3
f 118/116/3 113/111/3 115/113/3
f 119/117/3 117/115/3 116/114/3
f 119/117/3 120/118/3 117/115/3
f 121/119/3 120/118/3 119/117/3
f 122/120/3 120/118/3 121/119/3
f 123/121/3 119/117/3 118/116/3
f 123/121/3 121/119/3 119/117/3
f 123/122/3 122/123/3 121/124/3
f 124/125/3 120/118/3 122/120/3
f 124/126/3 122/123/3 123/122/3
f 125/127/3 118/116/3 115/113/3
f 125/127/3 123/121/3 118/116/3
f 125/127/3 124/125/3 123/121/3
f 126/128/3 120/118/3 124/125/3
f 126/128/3 124/125/3 125/127/3
f 127/129/3 128/130/3 129/131/3
f 130/132/3 128/130/3 127/129/3
f 131/133/3 132/134/3 133/135/3
f 134/136/3 132/134/3 131/133/3
f 135/137/3 136/138/3 137/139/3
f 138/140/3 136/138/3 135/137/3
f 139/141/3 140/142/3 141/143/3
f 142/144/3 140/142/3 139/141/3
f 143/145/3 144/146/3 145/147/3
f 146/148/3 144/146/3 143/145/3
f 147/149/3 148/150/3 149/151/3
f 150/152/3 151/153/3 148/154/3
f 150/155/3 148/150/3 147/149/3
f 152/156/3 151/153/3 150/152/3
f 153/157/3 151/153/3 152/156/3
f 154/158/3 155/159/3 156/160/3
f 157/161/3 155/159/3 154/158/3
f 158/162/3 159/163/3 160/164/3
f 161/165/3 159/163/3 158/162/3
f 162/166/3 163/167/3 164/168/3
f 165/169/3 163/167/3 162/166/3
f 166/170/4 167/171/4 168/172/4
f 168/172/4 167/171/4 169/173/4
f 170/174/4 171/175/4 172/176/4
f 172/176/4 171/175/4 173/177/4
f 174/178/4 175/179/4 176/180/4
f 176/180/4 175/179/4 177/181/4
f 178/182/4 179/183/4 180/184/4
f 180/184/4 179/183/4 181/185/4
f 182/186/4 183/187/4 184/188/4
f 184/188/4 183/187/4 185/189/4
f 186/190/4 187/191/4 188/192/4
f 187/193/4 189/194/4 190/195/4
f 188/192/4 187/191/4 190/196/4
f 190/195/4 189/194/4 191/197/4
f 191/197/4 189/194/4 192/198/4
f 193/199/4 194/200/4 195/201/4
f 195/201/4 194/200/4 196/202/4
f 197/203/4 198/204/4 199/205/4
f 199/205/4 198/204/4 200/206/4
f 201/207/4 202/208/4 203/209/4
f 203/209/4 202/208/4 204/210/4
f 204/210/4 202/208/4 205/211/4
f 201/207/4 203/209/4 206/212/4
f 204/210/4 205/211/4 207/213/4
f 205/211/4 208/214/4 207/213/4
f 207/213/4 208/214/4 209/215/4
f 209/215/4 208/214/4 210/216/4
f 206/212/4 207/213/4 211/217/4
f 207/213/4 209/215/4 211/217/4
f 209/218/4 210/219/4 211/220/4
f 210/216/4 208/214/4 212/221/4
f 211/220/4 210/219/4 212/222/4
f 201/207/4 206/212/4 213/223/4
f 206/212/4 211/217/4 213/223/4
f 211/217/4 212/221/4 213/223/4
f 212/221/4 208/214/4 214/224/4
f 213/223/4 212/221/4 214/224/4
f 215/225/4 216/226/4 217/227/4
f 217/227/4 216/226/4 218/228/4
f 219/229/4 220/230/4 221/231/4
f 221/231/4 220/230/4 222/232/4
f 223/233/5 224/234/5 225/235/5
f 226/236/5 224/234/5 223/233/5
f 227/237/5 223/233/5 225/235/5
f 228/238/5 227/237/5 225/235/5
f 228/238/5 229/239/5 227/237/5
f 230/240/5 229/239/5 228/238/5
f 231/241/5 232/242/5 233/243/5
f 234/244/5 232/242/5 231/241/5
f 235/245/5 231/241/5 233/243/5
f 236/246/5 235/245/5 233/243/5
f 236/246/5 237/247/5 235/245/5
f 238/248/5 237/247/5 236/246/5
f 239/249/5 240/250/5 241/251/5
f 242/252/5 240/250/5 239/249/5
f 243/253/5 239/249/5 241/251/5
f 244/254/5 240/250/5 242/252/5
f 245/255/5 243/253/5 241/251/5
f 245/255/5 244/254/5 243/253/5
f 246/256/5 240/250/5 244/254/5
f 246/256/5 244/254/5 245/255/5
f 247/257/5 245/255/5 241/251/5
f 248/258/5 240/250/5 246/256/5
f 249/259/5 247/257/5 241/251/5
f 249/259/5 248/258/5 247/257/5
f 250/260/5 240/250/5 248/258/5
f 250/260/5 248/258/5 249/259/5
f 251/261/5 252/262/5 253/263/5
f 254/264/5 252/262/5 251/261/5
f 255/265/5 256/266/5 257/267/5
f 258/268/5 256/266/5 255/265/5
f 259/269/5 260/270/5 261/271/5
f 262/272/5 260/270/5 259/269/5
f 263/273/5 264/274/5 265/275/5
f 266/276/5 264/274/5 263/273/5
f 267/277/5 268/278/5 269/279/5
f 270/280/5 268/278/5 267/277/5
f 271/281/6 272/282/6 273/283/6
f 273/283/6 272/282/6 274/284/6
f 274/284/6 272/282/6 275/285/6
f 275/285/6 272/282/6 276/286/6
f 271/281/6 273/283/6 277/287/6
f 274/284/6 275/285/6 278/288/6
f 278/288/6 275/285/6 279/289/6
f 271/281/6 277/287/6 280/290/6
f 279/289/6 281/291/6 280/290/6
f 278/288/6 279/289/6 280/290/6
f 277/287/6 278/288/6 280/290/6
f 280/290/6 281/291/6 282/292/6
f 283/293/6 284/294/6 285/295/6
f 285/295/6 284/294/6 286/296/6
f 286/296/6 284/294/6 287/297/6
f 287/297/6 284/294/6 288/298/6
f 283/293/6 285/295/6 289/299/6
f 286/296/6 287/297/6 290/300/6
f 290/300/6 287/297/6 291/301/6
f 283/293/6 289/299/6 292/302/6
f 291/301/6 293/303/6 292/302/6
f 290/300/6 291/301/6 292/302/6
f 289/299/6 290/300/6 292/302/6
f 292/302/6 293/303/6 294/304/6
f 295/305/6 296/306/6 297/307/6
f 297/307/6 296/306/6 298/308/6
f 299/309/6 300/310/6 301/311/6
f 301/311/6 300/310/6 302/312/6
f 303/313/6 304/314/6 305/315/6
f 305/315/6 304/314/6 306/316/6
f 307/317/6 308/318/6 309/319/6
f 309/319/6 308/318/6 310/320/6
f 311/321/6 312/322/6 313/323/6
f 313/323/6 312/322/6 314/324/6
f 315/325/6 316/326/6 317/327/6
f 317/327/6 316/326/6 318/328/6
f 315/325/6 317/327/6 319/329/6
f 318/328/6 316/326/6 320/330/6
f 315/325/6 319/329/6 321/331/6
f 319/329/6 320/330/6 321/331/6
f 320/330/6 316/326/6 322/332/6
f 321/331/6 320/330/6 322/332/6
f 323/333/6 324/334/6 325/335/6
f 325/335/6 324/334/6 326/336/6
