# MagicaVoxel @ Ephtracy

# group
o 

# material
mtllib play.mtl
usemtl palette

# normals
vn -1 0 0
vn 1 0 0
vn 0 0 1
vn 0 0 -1
vn 0 -1 0
vn 0 1 0

# texcoords
vt 0.728516 0.5
vt 0.958984 0.5

# verts
v 0.1 2.5 -0.9
v 0.1 2.5 -1
v 0.1 3.4 -0.9
v 0.1 3.4 -1
v 1.2 2.5 -0.9
v 1.2 2.5 -1
v 1.2 3.4 -0.9
v 1.2 3.4 -1
v 0.1 2.5 -0.9
v 0.1 3.4 -0.9
v 0.3 2.6 -0.9
v 0.3 3.3 -0.9
v 0.5 2.6 -0.9
v 0.5 2.7 -0.9
v 0.5 3.2 -0.9
v 0.5 3.3 -0.9
v 0.7 2.7 -0.9
v 0.7 2.8 -0.9
v 0.7 3.1 -0.9
v 0.7 3.2 -0.9
v 0.9 2.8 -0.9
v 0.9 2.9 -0.9
v 0.9 3 -0.9
v 0.9 3.1 -0.9
v 1 2.9 -0.9
v 1 3 -0.9
v 1.2 2.5 -0.9
v 1.2 3.4 -0.9
v 0.1 2.5 -1
v 0.1 3.4 -1
v 0.3 2.6 -1
v 0.3 3.3 -1
v 0.5 2.6 -1
v 0.5 2.7 -1
v 0.5 3.2 -1
v 0.5 3.3 -1
v 0.7 2.7 -1
v 0.7 2.8 -1
v 0.7 3.1 -1
v 0.7 3.2 -1
v 0.9 2.8 -1
v 0.9 2.9 -1
v 0.9 3 -1
v 0.9 3.1 -1
v 1 2.9 -1
v 1 3 -1
v 1.2 2.5 -1
v 1.2 3.4 -1
v 0.1 2.5 -0.9
v 1.2 2.5 -0.9
v 0.1 2.5 -1
v 1.2 2.5 -1
v 0.1 3.4 -0.9
v 1.2 3.4 -0.9
v 0.1 3.4 -1
v 1.2 3.4 -1

# faces
f 3/1/1 2/1/1 1/1/1
f 4/1/1 2/1/1 3/1/1
f 5/1/2 6/1/2 7/1/2
f 7/1/2 6/1/2 8/1/2
f 11/1/3 10/1/3 9/1/3
f 12/1/3 10/1/3 11/1/3
f 13/1/3 11/1/3 9/1/3
f 13/2/3 12/2/3 11/2/3
f 14/2/3 12/2/3 13/2/3
f 15/2/3 12/2/3 14/2/3
f 16/1/3 10/1/3 12/1/3
f 16/2/3 12/2/3 15/2/3
f 17/2/3 15/2/3 14/2/3
f 17/1/3 14/1/3 13/1/3
f 18/2/3 15/2/3 17/2/3
f 19/2/3 15/2/3 18/2/3
f 20/1/3 16/1/3 15/1/3
f 20/2/3 15/2/3 19/2/3
f 21/2/3 19/2/3 18/2/3
f 21/1/3 18/1/3 17/1/3
f 22/2/3 19/2/3 21/2/3
f 23/2/3 19/2/3 22/2/3
f 24/1/3 20/1/3 19/1/3
f 24/2/3 19/2/3 23/2/3
f 25/2/3 23/2/3 22/2/3
f 25/1/3 22/1/3 21/1/3
f 26/1/3 24/1/3 23/1/3
f 26/2/3 23/2/3 25/2/3
f 27/1/3 13/1/3 9/1/3
f 27/1/3 17/1/3 13/1/3
f 27/1/3 26/1/3 25/1/3
f 27/1/3 25/1/3 21/1/3
f 27/1/3 21/1/3 17/1/3
f 28/1/3 10/1/3 16/1/3
f 28/1/3 26/1/3 27/1/3
f 28/1/3 24/1/3 26/1/3
f 28/1/3 20/1/3 24/1/3
f 28/1/3 16/1/3 20/1/3
f 29/1/4 30/1/4 31/1/4
f 31/1/4 30/1/4 32/1/4
f 29/1/4 31/1/4 33/1/4
f 31/2/4 32/2/4 33/2/4
f 33/2/4 32/2/4 34/2/4
f 34/2/4 32/2/4 35/2/4
f 32/1/4 30/1/4 36/1/4
f 35/2/4 32/2/4 36/2/4
f 34/2/4 35/2/4 37/2/4
f 33/1/4 34/1/4 37/1/4
f 37/2/4 35/2/4 38/2/4
f 38/2/4 35/2/4 39/2/4
f 35/1/4 36/1/4 40/1/4
f 39/2/4 35/2/4 40/2/4
f 38/2/4 39/2/4 41/2/4
f 37/1/4 38/1/4 41/1/4
f 41/2/4 39/2/4 42/2/4
f 42/2/4 39/2/4 43/2/4
f 39/1/4 40/1/4 44/1/4
f 43/2/4 39/2/4 44/2/4
f 42/2/4 43/2/4 45/2/4
f 41/1/4 42/1/4 45/1/4
f 43/1/4 44/1/4 46/1/4
f 45/2/4 43/2/4 46/2/4
f 29/1/4 33/1/4 47/1/4
f 33/1/4 37/1/4 47/1/4
f 45/1/4 46/1/4 47/1/4
f 41/1/4 45/1/4 47/1/4
f 37/1/4 41/1/4 47/1/4
f 36/1/4 30/1/4 48/1/4
f 47/1/4 46/1/4 48/1/4
f 46/1/4 44/1/4 48/1/4
f 44/1/4 40/1/4 48/1/4
f 40/1/4 36/1/4 48/1/4
f 51/1/5 50/1/5 49/1/5
f 52/1/5 50/1/5 51/1/5
f 53/1/6 54/1/6 55/1/6
f 55/1/6 54/1/6 56/1/6
