# MagicaVoxel @ Ephtracy

# group
o 

# material
mtllib police_car.mtl
usemtl palette

# normals
vn -1 0 0
vn 1 0 0
vn 0 0 1
vn 0 0 -1
vn 0 -1 0
vn 0 1 0

# texcoords
vt 0.775391 0.5
vt 0.833984 0.5
vt 0.841797 0.5
vt 0.919922 0.5
vt 0.958984 0.5
vt 0.986328 0.5
vt 0.994141 0.5

# verts
v 0 2.1 -0.1
v 0 2.1 -0.4
v 0 2.1 -0.6
v 0 2.1 -0.9
v 0 2.2 -0.1
v 0 2.2 -0.4
v 0 2.2 -0.6
v 0 2.2 -0.9
v 0 2.3 -0.1
v 0 2.3 -0.3
v 0 2.3 -0.4
v 0 2.3 -0.6
v 0 2.3 -0.7
v 0 2.3 -0.9
v 0 2.4 -0.3
v 0 2.4 -0.4
v 0 2.4 -0.6
v 0 2.4 -0.7
v 0 2.5 -0.1
v 0 2.5 -0.4
v 0 2.5 -0.6
v 0 2.5 -0.9
v 0.1 2 -0.1
v 0.1 2 -0.2
v 0.1 2 -0.8
v 0.1 2 -0.9
v 0.1 2.1 -0.1
v 0.1 2.1 -0.2
v 0.1 2.1 -0.4
v 0.1 2.1 -0.6
v 0.1 2.1 -0.8
v 0.1 2.1 -0.9
v 0.1 2.2 -0.4
v 0.1 2.2 -0.6
v 0.4 2.5 -0.2
v 0.4 2.5 -0.3
v 0.4 2.5 -0.4
v 0.4 2.5 -0.6
v 0.4 2.5 -0.7
v 0.4 2.5 -0.8
v 0.4 2.7 -0.3
v 0.4 2.7 -0.7
v 0.4 2.8 -0.2
v 0.4 2.8 -0.8
v 0.7 2.3 0
v 0.7 2.3 -0.1
v 0.7 2.3 -0.9
v 0.7 2.3 -1
v 0.7 2.4 0
v 0.7 2.4 -0.1
v 0.7 2.4 -0.9
v 0.7 2.4 -1
v 0.9 2.8 -0.3
v 0.9 2.8 -0.4
v 0.9 2.8 -0.6
v 0.9 2.8 -0.7
v 0.9 2.9 -0.3
v 0.9 2.9 -0.4
v 0.9 2.9 -0.6
v 0.9 2.9 -0.7
v 1.2 2 -0.1
v 1.2 2 -0.2
v 1.2 2 -0.8
v 1.2 2 -0.9
v 1.2 2.1 -0.1
v 1.2 2.1 -0.2
v 1.2 2.1 -0.8
v 1.2 2.1 -0.9
v 1.3 2.5 -0.4
v 1.3 2.5 -0.6
v 1.3 2.7 -0.4
v 1.3 2.7 -0.6
v 0.4 2 -0.1
v 0.4 2 -0.2
v 0.4 2 -0.8
v 0.4 2 -0.9
v 0.4 2.1 -0.1
v 0.4 2.1 -0.2
v 0.4 2.1 -0.8
v 0.4 2.1 -0.9
v 0.8 2.5 -0.4
v 0.8 2.5 -0.6
v 0.8 2.7 -0.4
v 0.8 2.7 -0.6
v 0.9 2.3 0
v 0.9 2.3 -0.1
v 0.9 2.3 -0.9
v 0.9 2.3 -1
v 0.9 2.4 0
v 0.9 2.4 -0.1
v 0.9 2.4 -0.9
v 0.9 2.4 -1
v 1.1 2.8 -0.3
v 1.1 2.8 -0.7
v 1.1 2.9 -0.3
v 1.1 2.9 -0.7
v 1.4 2.5 -0.2
v 1.4 2.5 -0.3
v 1.4 2.5 -0.4
v 1.4 2.5 -0.6
v 1.4 2.5 -0.7
v 1.4 2.5 -0.8
v 1.4 2.7 -0.3
v 1.4 2.7 -0.7
v 1.4 2.8 -0.2
v 1.4 2.8 -0.8
v 1.5 2 -0.1
v 1.5 2 -0.2
v 1.5 2 -0.8
v 1.5 2 -0.9
v 1.5 2.1 -0.1
v 1.5 2.1 -0.2
v 1.5 2.1 -0.4
v 1.5 2.1 -0.6
v 1.5 2.1 -0.8
v 1.5 2.1 -0.9
v 1.5 2.2 -0.4
v 1.5 2.2 -0.6
v 1.6 2.1 -0.1
v 1.6 2.1 -0.4
v 1.6 2.1 -0.6
v 1.6 2.1 -0.9
v 1.6 2.2 -0.1
v 1.6 2.2 -0.4
v 1.6 2.2 -0.6
v 1.6 2.2 -0.9
v 1.6 2.3 -0.1
v 1.6 2.3 -0.3
v 1.6 2.3 -0.7
v 1.6 2.3 -0.9
v 1.6 2.4 -0.1
v 1.6 2.4 -0.3
v 1.6 2.4 -0.4
v 1.6 2.4 -0.6
v 1.6 2.4 -0.7
v 1.6 2.4 -0.9
v 1.6 2.5 -0.1
v 1.6 2.5 -0.4
v 1.6 2.5 -0.6
v 1.6 2.5 -0.9
v 0.7 2.3 0
v 0.7 2.4 0
v 0.9 2.3 0
v 0.9 2.4 0
v 0 2.1 -0.1
v 0 2.2 -0.1
v 0 2.3 -0.1
v 0 2.5 -0.1
v 0.1 2 -0.1
v 0.1 2.1 -0.1
v 0.1 2.2 -0.1
v 0.1 2.3 -0.1
v 0.2 2.1 -0.1
v 0.2 2.2 -0.1
v 0.3 2.1 -0.1
v 0.3 2.2 -0.1
v 0.4 2 -0.1
v 0.4 2.1 -0.1
v 0.4 2.2 -0.1
v 0.4 2.3 -0.1
v 0.7 2.3 -0.1
v 0.7 2.4 -0.1
v 0.9 2.3 -0.1
v 0.9 2.4 -0.1
v 1.2 2 -0.1
v 1.2 2.1 -0.1
v 1.2 2.2 -0.1
v 1.2 2.3 -0.1
v 1.3 2.1 -0.1
v 1.3 2.2 -0.1
v 1.4 2.1 -0.1
v 1.4 2.2 -0.1
v 1.4 2.3 -0.1
v 1.4 2.4 -0.1
v 1.5 2 -0.1
v 1.5 2.1 -0.1
v 1.5 2.2 -0.1
v 1.5 2.3 -0.1
v 1.5 2.4 -0.1
v 1.6 2.1 -0.1
v 1.6 2.2 -0.1
v 1.6 2.3 -0.1
v 1.6 2.4 -0.1
v 1.6 2.5 -0.1
v 0.4 2.5 -0.2
v 0.4 2.8 -0.2
v 0.5 2.5 -0.2
v 0.5 2.7 -0.2
v 0.9 2.5 -0.2
v 0.9 2.7 -0.2
v 1 2.5 -0.2
v 1 2.7 -0.2
v 1.3 2.5 -0.2
v 1.3 2.7 -0.2
v 1.4 2.5 -0.2
v 1.4 2.8 -0.2
v 0.9 2.8 -0.3
v 0.9 2.9 -0.3
v 1 2.8 -0.3
v 1 2.9 -0.3
v 1.1 2.8 -0.3
v 1.1 2.9 -0.3
v 0 2.1 -0.6
v 0 2.2 -0.6
v 0.1 2.1 -0.6
v 0.1 2.2 -0.6
v 0.8 2.5 -0.6
v 0.8 2.7 -0.6
v 1.1 2.5 -0.6
v 1.1 2.7 -0.6
v 1.2 2.5 -0.6
v 1.2 2.7 -0.6
v 1.3 2.5 -0.6
v 1.3 2.7 -0.6
v 1.5 2.1 -0.6
v 1.5 2.2 -0.6
v 1.6 2.1 -0.6
v 1.6 2.2 -0.6
v 0.1 2 -0.8
v 0.1 2.1 -0.8
v 0.4 2 -0.8
v 0.4 2.1 -0.8
v 1.2 2 -0.8
v 1.2 2.1 -0.8
v 1.5 2 -0.8
v 1.5 2.1 -0.8
v 0.1 2 -0.2
v 0.1 2.1 -0.2
v 0.4 2 -0.2
v 0.4 2.1 -0.2
v 1.2 2 -0.2
v 1.2 2.1 -0.2
v 1.5 2 -0.2
v 1.5 2.1 -0.2
v 0 2.1 -0.4
v 0 2.2 -0.4
v 0.1 2.1 -0.4
v 0.1 2.2 -0.4
v 0.8 2.5 -0.4
v 0.8 2.7 -0.4
v 1.1 2.5 -0.4
v 1.1 2.7 -0.4
v 1.2 2.5 -0.4
v 1.2 2.7 -0.4
v 1.3 2.5 -0.4
v 1.3 2.7 -0.4
v 1.5 2.1 -0.4
v 1.5 2.2 -0.4
v 1.6 2.1 -0.4
v 1.6 2.2 -0.4
v 0.9 2.8 -0.7
v 0.9 2.9 -0.7
v 1 2.8 -0.7
v 1 2.9 -0.7
v 1.1 2.8 -0.7
v 1.1 2.9 -0.7
v 0.4 2.5 -0.8
v 0.4 2.8 -0.8
v 0.5 2.5 -0.8
v 0.5 2.7 -0.8
v 0.9 2.5 -0.8
v 0.9 2.7 -0.8
v 1 2.5 -0.8
v 1 2.7 -0.8
v 1.3 2.5 -0.8
v 1.3 2.7 -0.8
v 1.4 2.5 -0.8
v 1.4 2.8 -0.8
v 0 2.1 -0.9
v 0 2.2 -0.9
v 0 2.3 -0.9
v 0 2.5 -0.9
v 0.1 2 -0.9
v 0.1 2.1 -0.9
v 0.1 2.2 -0.9
v 0.1 2.3 -0.9
v 0.2 2.1 -0.9
v 0.2 2.2 -0.9
v 0.3 2.1 -0.9
v 0.3 2.2 -0.9
v 0.4 2 -0.9
v 0.4 2.1 -0.9
v 0.4 2.2 -0.9
v 0.4 2.3 -0.9
v 0.7 2.3 -0.9
v 0.7 2.4 -0.9
v 0.9 2.3 -0.9
v 0.9 2.4 -0.9
v 1.2 2 -0.9
v 1.2 2.1 -0.9
v 1.2 2.2 -0.9
v 1.2 2.3 -0.9
v 1.3 2.1 -0.9
v 1.3 2.2 -0.9
v 1.4 2.1 -0.9
v 1.4 2.2 -0.9
v 1.4 2.3 -0.9
v 1.4 2.4 -0.9
v 1.5 2 -0.9
v 1.5 2.1 -0.9
v 1.5 2.2 -0.9
v 1.5 2.3 -0.9
v 1.5 2.4 -0.9
v 1.6 2.1 -0.9
v 1.6 2.2 -0.9
v 1.6 2.3 -0.9
v 1.6 2.4 -0.9
v 1.6 2.5 -0.9
v 0.7 2.3 -1
v 0.7 2.4 -1
v 0.9 2.3 -1
v 0.9 2.4 -1
v 0.1 2 -0.1
v 0.4 2 -0.1
v 1.2 2 -0.1
v 1.5 2 -0.1
v 0.1 2 -0.2
v 0.4 2 -0.2
v 1.2 2 -0.2
v 1.5 2 -0.2
v 0.1 2 -0.8
v 0.4 2 -0.8
v 1.2 2 -0.8
v 1.5 2 -0.8
v 0.1 2 -0.9
v 0.4 2 -0.9
v 1.2 2 -0.9
v 1.5 2 -0.9
v 0 2.1 -0.1
v 0.1 2.1 -0.1
v 0.4 2.1 -0.1
v 1.2 2.1 -0.1
v 1.5 2.1 -0.1
v 1.6 2.1 -0.1
v 0.1 2.1 -0.2
v 0.4 2.1 -0.2
v 1.2 2.1 -0.2
v 1.5 2.1 -0.2
v 0 2.1 -0.4
v 0.1 2.1 -0.4
v 1.5 2.1 -0.4
v 1.6 2.1 -0.4
v 0 2.1 -0.6
v 0.1 2.1 -0.6
v 1.5 2.1 -0.6
v 1.6 2.1 -0.6
v 0.1 2.1 -0.8
v 0.4 2.1 -0.8
v 1.2 2.1 -0.8
v 1.5 2.1 -0.8
v 0 2.1 -0.9
v 0.1 2.1 -0.9
v 0.4 2.1 -0.9
v 1.2 2.1 -0.9
v 1.5 2.1 -0.9
v 1.6 2.1 -0.9
v 0 2.2 -0.4
v 0.1 2.2 -0.4
v 1.5 2.2 -0.4
v 1.6 2.2 -0.4
v 0 2.2 -0.6
v 0.1 2.2 -0.6
v 1.5 2.2 -0.6
v 1.6 2.2 -0.6
v 0.7 2.3 0
v 0.9 2.3 0
v 0.7 2.3 -0.1
v 0.9 2.3 -0.1
v 0.7 2.3 -0.9
v 0.9 2.3 -0.9
v 0.7 2.3 -1
v 0.9 2.3 -1
v 0.8 2.7 -0.4
v 1.1 2.7 -0.4
v 1.2 2.7 -0.4
v 1.3 2.7 -0.4
v 0.8 2.7 -0.6
v 1.1 2.7 -0.6
v 1.2 2.7 -0.6
v 1.3 2.7 -0.6
v 0.7 2.4 0
v 0.9 2.4 0
v 0.7 2.4 -0.1
v 0.9 2.4 -0.1
v 0.7 2.4 -0.9
v 0.9 2.4 -0.9
v 0.7 2.4 -1
v 0.9 2.4 -1
v 0 2.5 -0.1
v 1.6 2.5 -0.1
v 0.4 2.5 -0.2
v 0.5 2.5 -0.2
v 0.9 2.5 -0.2
v 1 2.5 -0.2
v 1.3 2.5 -0.2
v 1.4 2.5 -0.2
v 0.4 2.5 -0.3
v 1.4 2.5 -0.3
v 0 2.5 -0.4
v 0.4 2.5 -0.4
v 0.8 2.5 -0.4
v 1.1 2.5 -0.4
v 1.2 2.5 -0.4
v 1.3 2.5 -0.4
v 1.4 2.5 -0.4
v 1.6 2.5 -0.4
v 0 2.5 -0.6
v 0.4 2.5 -0.6
v 0.8 2.5 -0.6
v 1.1 2.5 -0.6
v 1.2 2.5 -0.6
v 1.3 2.5 -0.6
v 1.4 2.5 -0.6
v 1.6 2.5 -0.6
v 0.4 2.5 -0.7
v 1.4 2.5 -0.7
v 0.4 2.5 -0.8
v 0.5 2.5 -0.8
v 0.9 2.5 -0.8
v 1 2.5 -0.8
v 1.3 2.5 -0.8
v 1.4 2.5 -0.8
v 0 2.5 -0.9
v 1.6 2.5 -0.9
v 0.4 2.8 -0.2
v 1.4 2.8 -0.2
v 0.9 2.8 -0.3
v 1 2.8 -0.3
v 1.1 2.8 -0.3
v 0.9 2.8 -0.4
v 0.9 2.8 -0.6
v 0.9 2.8 -0.7
v 1 2.8 -0.7
v 1.1 2.8 -0.7
v 0.4 2.8 -0.8
v 1.4 2.8 -0.8
v 0.9 2.9 -0.3
v 1 2.9 -0.3
v 1.1 2.9 -0.3
v 0.9 2.9 -0.4
v 1 2.9 -0.4
v 0.9 2.9 -0.6
v 1 2.9 -0.6
v 0.9 2.9 -0.7
v 1 2.9 -0.7
v 1.1 2.9 -0.7

# faces
f 5/6/1 2/6/1 1/6/1
f 6/6/1 2/6/1 5/6/1
f 7/6/1 4/6/1 3/6/1
f 8/6/1 4/6/1 7/6/1
f 9/2/1 6/2/1 5/2/1
f 9/2/1 7/2/1 6/2/1
f 9/2/1 8/2/1 7/2/1
f 10/2/1 8/2/1 9/2/1
f 11/2/1 8/2/1 10/2/1
f 12/2/1 8/2/1 11/2/1
f 13/2/1 8/2/1 12/2/1
f 14/2/1 8/2/1 13/2/1
f 15/1/1 10/1/1 9/1/1
f 15/5/1 11/5/1 10/5/1
f 16/1/1 12/1/1 11/1/1
f 16/5/1 11/5/1 15/5/1
f 17/5/1 13/5/1 12/5/1
f 17/1/1 12/1/1 16/1/1
f 18/1/1 14/1/1 13/1/1
f 18/5/1 13/5/1 17/5/1
f 19/1/1 15/1/1 9/1/1
f 19/1/1 16/1/1 15/1/1
f 20/2/1 17/2/1 16/2/1
f 20/1/1 16/1/1 19/1/1
f 21/1/1 18/1/1 17/1/1
f 21/2/1 17/2/1 20/2/1
f 22/1/1 14/1/1 18/1/1
f 22/1/1 18/1/1 21/1/1
f 27/7/1 24/7/1 23/7/1
f 28/7/1 24/7/1 27/7/1
f 31/7/1 26/7/1 25/7/1
f 32/7/1 26/7/1 31/7/1
f 33/6/1 30/6/1 29/6/1
f 34/6/1 30/6/1 33/6/1
f 41/5/1 36/5/1 35/5/1
f 41/7/1 37/7/1 36/7/1
f 41/7/1 39/7/1 38/7/1
f 41/7/1 38/7/1 37/7/1
f 42/5/1 40/5/1 39/5/1
f 42/7/1 39/7/1 41/7/1
f 43/5/1 41/5/1 35/5/1
f 43/5/1 42/5/1 41/5/1
f 44/5/1 40/5/1 42/5/1
f 44/5/1 42/5/1 43/5/1
f 49/2/1 46/2/1 45/2/1
f 50/2/1 46/2/1 49/2/1
f 51/2/1 48/2/1 47/2/1
f 52/2/1 48/2/1 51/2/1
f 57/4/1 54/4/1 53/4/1
f 58/5/1 55/5/1 54/5/1
f 58/4/1 54/4/1 57/4/1
f 59/3/1 56/3/1 55/3/1
f 59/5/1 55/5/1 58/5/1
f 60/3/1 56/3/1 59/3/1
f 65/7/1 62/7/1 61/7/1
f 66/7/1 62/7/1 65/7/1
f 67/7/1 64/7/1 63/7/1
f 68/7/1 64/7/1 67/7/1
f 71/7/1 70/7/1 69/7/1
f 72/7/1 70/7/1 71/7/1
f 73/7/2 74/7/2 77/7/2
f 77/7/2 74/7/2 78/7/2
f 75/7/2 76/7/2 79/7/2
f 79/7/2 76/7/2 80/7/2
f 81/7/2 82/7/2 83/7/2
f 83/7/2 82/7/2 84/7/2
f 85/2/2 86/2/2 89/2/2
f 89/2/2 86/2/2 90/2/2
f 87/2/2 88/2/2 91/2/2
f 91/2/2 88/2/2 92/2/2
f 93/6/2 94/6/2 95/6/2
f 95/6/2 94/6/2 96/6/2
f 97/5/2 98/5/2 103/5/2
f 98/7/2 99/7/2 103/7/2
f 100/7/2 101/7/2 103/7/2
f 99/7/2 100/7/2 103/7/2
f 101/5/2 102/5/2 104/5/2
f 103/7/2 101/7/2 104/7/2
f 97/5/2 103/5/2 105/5/2
f 103/5/2 104/5/2 105/5/2
f 104/5/2 102/5/2 106/5/2
f 105/5/2 104/5/2 106/5/2
f 107/7/2 108/7/2 111/7/2
f 111/7/2 108/7/2 112/7/2
f 109/7/2 110/7/2 115/7/2
f 115/7/2 110/7/2 116/7/2
f 113/6/2 114/6/2 117/6/2
f 117/6/2 114/6/2 118/6/2
f 119/6/2 120/6/2 123/6/2
f 123/6/2 120/6/2 124/6/2
f 121/6/2 122/6/2 125/6/2
f 125/6/2 122/6/2 126/6/2
f 123/2/2 124/2/2 127/2/2
f 124/2/2 125/2/2 127/2/2
f 125/2/2 126/2/2 127/2/2
f 127/2/2 126/2/2 128/2/2
f 128/2/2 126/2/2 129/2/2
f 129/2/2 126/2/2 130/2/2
f 127/3/2 128/3/2 131/3/2
f 128/1/2 129/1/2 132/1/2
f 131/3/2 128/3/2 132/3/2
f 132/1/2 129/1/2 133/1/2
f 133/1/2 129/1/2 134/1/2
f 129/3/2 130/3/2 135/3/2
f 134/1/2 129/1/2 135/1/2
f 135/3/2 130/3/2 136/3/2
f 131/1/2 132/1/2 137/1/2
f 132/1/2 133/1/2 137/1/2
f 133/2/2 134/2/2 138/2/2
f 137/1/2 133/1/2 138/1/2
f 135/1/2 136/1/2 139/1/2
f 138/2/2 134/2/2 139/2/2
f 134/1/2 135/1/2 139/1/2
f 139/1/2 136/1/2 140/1/2
f 143/2/3 142/2/3 141/2/3
f 144/2/3 142/2/3 143/2/3
f 150/6/3 146/6/3 145/6/3
f 151/2/3 147/2/3 146/2/3
f 151/6/3 146/6/3 150/6/3
f 152/1/3 148/1/3 147/1/3
f 152/2/3 147/2/3 151/2/3
f 153/7/3 151/7/3 150/7/3
f 153/7/3 150/7/3 149/7/3
f 153/7/3 152/7/3 151/7/3
f 154/7/3 152/7/3 153/7/3
f 155/7/3 153/7/3 149/7/3
f 155/5/3 154/5/3 153/5/3
f 156/7/3 152/7/3 154/7/3
f 156/5/3 154/5/3 155/5/3
f 157/7/3 155/7/3 149/7/3
f 157/7/3 156/7/3 155/7/3
f 158/7/3 156/7/3 157/7/3
f 159/7/3 152/7/3 156/7/3
f 159/7/3 156/7/3 158/7/3
f 160/1/3 148/1/3 152/1/3
f 160/7/3 152/7/3 159/7/3
f 161/1/3 148/1/3 160/1/3
f 161/2/3 160/2/3 159/2/3
f 162/1/3 148/1/3 161/1/3
f 163/2/3 161/2/3 159/2/3
f 164/1/3 148/1/3 162/1/3
f 166/6/3 159/6/3 158/6/3
f 167/2/3 163/2/3 159/2/3
f 167/6/3 159/6/3 166/6/3
f 168/5/3 164/5/3 163/5/3
f 168/2/3 163/2/3 167/2/3
f 169/7/3 167/7/3 166/7/3
f 169/7/3 166/7/3 165/7/3
f 169/7/3 168/7/3 167/7/3
f 170/7/3 168/7/3 169/7/3
f 171/7/3 169/7/3 165/7/3
f 171/5/3 170/5/3 169/5/3
f 172/7/3 168/7/3 170/7/3
f 172/5/3 170/5/3 171/5/3
f 173/5/3 164/5/3 168/5/3
f 173/7/3 168/7/3 172/7/3
f 174/1/3 148/1/3 164/1/3
f 174/5/3 164/5/3 173/5/3
f 175/7/3 172/7/3 171/7/3
f 175/7/3 173/7/3 172/7/3
f 175/7/3 171/7/3 165/7/3
f 176/7/3 173/7/3 175/7/3
f 177/7/3 173/7/3 176/7/3
f 178/1/3 174/1/3 173/1/3
f 178/7/3 173/7/3 177/7/3
f 179/1/3 148/1/3 174/1/3
f 179/1/3 174/1/3 178/1/3
f 180/6/3 177/6/3 176/6/3
f 181/2/3 178/2/3 177/2/3
f 181/6/3 177/6/3 180/6/3
f 182/3/3 179/3/3 178/3/3
f 182/2/3 178/2/3 181/2/3
f 183/1/3 148/1/3 179/1/3
f 183/3/3 179/3/3 182/3/3
f 184/1/3 148/1/3 183/1/3
f 187/5/3 186/5/3 185/5/3
f 188/5/3 186/5/3 187/5/3
f 189/7/3 188/7/3 187/7/3
f 190/5/3 186/5/3 188/5/3
f 190/7/3 188/7/3 189/7/3
f 191/5/3 190/5/3 189/5/3
f 192/5/3 186/5/3 190/5/3
f 192/5/3 190/5/3 191/5/3
f 193/7/3 192/7/3 191/7/3
f 194/5/3 186/5/3 192/5/3
f 194/7/3 192/7/3 193/7/3
f 195/5/3 194/5/3 193/5/3
f 196/5/3 186/5/3 194/5/3
f 196/5/3 194/5/3 195/5/3
f 199/4/3 198/4/3 197/4/3
f 200/4/3 198/4/3 199/4/3
f 201/6/3 200/6/3 199/6/3
f 202/6/3 200/6/3 201/6/3
f 205/6/3 204/6/3 203/6/3
f 206/6/3 204/6/3 205/6/3
f 209/7/3 208/7/3 207/7/3
f 210/7/3 208/7/3 209/7/3
f 211/5/3 210/5/3 209/5/3
f 212/5/3 210/5/3 211/5/3
f 213/7/3 212/7/3 211/7/3
f 214/7/3 212/7/3 213/7/3
f 217/6/3 216/6/3 215/6/3
f 218/6/3 216/6/3 217/6/3
f 221/7/3 220/7/3 219/7/3
f 222/7/3 220/7/3 221/7/3
f 225/7/3 224/7/3 223/7/3
f 226/7/3 224/7/3 225/7/3
f 227/7/4 228/7/4 229/7/4
f 229/7/4 228/7/4 230/7/4
f 231/7/4 232/7/4 233/7/4
f 233/7/4 232/7/4 234/7/4
f 235/6/4 236/6/4 237/6/4
f 237/6/4 236/6/4 238/6/4
f 239/7/4 240/7/4 241/7/4
f 241/7/4 240/7/4 242/7/4
f 241/5/4 242/5/4 243/5/4
f 243/5/4 242/5/4 244/5/4
f 243/7/4 244/7/4 245/7/4
f 245/7/4 244/7/4 246/7/4
f 247/6/4 248/6/4 249/6/4
f 249/6/4 248/6/4 250/6/4
f 251/3/4 252/3/4 253/3/4
f 253/3/4 252/3/4 254/3/4
f 253/6/4 254/6/4 255/6/4
f 255/6/4 254/6/4 256/6/4
f 257/5/4 258/5/4 259/5/4
f 259/5/4 258/5/4 260/5/4
f 259/7/4 260/7/4 261/7/4
f 260/5/4 258/5/4 262/5/4
f 261/7/4 260/7/4 262/7/4
f 261/5/4 262/5/4 263/5/4
f 262/5/4 258/5/4 264/5/4
f 263/5/4 262/5/4 264/5/4
f 263/7/4 264/7/4 265/7/4
f 264/5/4 258/5/4 266/5/4
f 265/7/4 264/7/4 266/7/4
f 265/5/4 266/5/4 267/5/4
f 266/5/4 258/5/4 268/5/4
f 267/5/4 266/5/4 268/5/4
f 269/6/4 270/6/4 274/6/4
f 270/2/4 271/2/4 275/2/4
f 274/6/4 270/6/4 275/6/4
f 271/1/4 272/1/4 276/1/4
f 275/2/4 271/2/4 276/2/4
f 274/7/4 275/7/4 277/7/4
f 273/7/4 274/7/4 277/7/4
f 275/7/4 276/7/4 277/7/4
f 277/7/4 276/7/4 278/7/4
f 273/7/4 277/7/4 279/7/4
f 277/5/4 278/5/4 279/5/4
f 278/7/4 276/7/4 280/7/4
f 279/5/4 278/5/4 280/5/4
f 273/7/4 279/7/4 281/7/4
f 279/7/4 280/7/4 281/7/4
f 281/7/4 280/7/4 282/7/4
f 280/7/4 276/7/4 283/7/4
f 282/7/4 280/7/4 283/7/4
f 276/1/4 272/1/4 284/1/4
f 283/7/4 276/7/4 284/7/4
f 284/1/4 272/1/4 285/1/4
f 283/2/4 284/2/4 285/2/4
f 285/1/4 272/1/4 286/1/4
f 283/2/4 285/2/4 287/2/4
f 286/1/4 272/1/4 288/1/4
f 282/6/4 283/6/4 290/6/4
f 283/2/4 287/2/4 291/2/4
f 290/6/4 283/6/4 291/6/4
f 287/5/4 288/5/4 292/5/4
f 291/2/4 287/2/4 292/2/4
f 290/7/4 291/7/4 293/7/4
f 289/7/4 290/7/4 293/7/4
f 291/7/4 292/7/4 293/7/4
f 293/7/4 292/7/4 294/7/4
f 289/7/4 293/7/4 295/7/4
f 293/5/4 294/5/4 295/5/4
f 294/7/4 292/7/4 296/7/4
f 295/5/4 294/5/4 296/5/4
f 292/5/4 288/5/4 297/5/4
f 296/7/4 292/7/4 297/7/4
f 288/1/4 272/1/4 298/1/4
f 297/5/4 288/5/4 298/5/4
f 295/7/4 296/7/4 299/7/4
f 296/7/4 297/7/4 299/7/4
f 289/7/4 295/7/4 299/7/4
f 299/7/4 297/7/4 300/7/4
f 300/7/4 297/7/4 301/7/4
f 297/1/4 298/1/4 302/1/4
f 301/7/4 297/7/4 302/7/4
f 298/1/4 272/1/4 303/1/4
f 302/1/4 298/1/4 303/1/4
f 300/6/4 301/6/4 304/6/4
f 301/2/4 302/2/4 305/2/4
f 304/6/4 301/6/4 305/6/4
f 302/3/4 303/3/4 306/3/4
f 305/2/4 302/2/4 306/2/4
f 303/1/4 272/1/4 307/1/4
f 306/3/4 303/3/4 307/3/4
f 307/1/4 272/1/4 308/1/4
f 309/2/4 310/2/4 311/2/4
f 311/2/4 310/2/4 312/2/4
f 317/7/5 314/7/5 313/7/5
f 318/7/5 314/7/5 317/7/5
f 319/7/5 316/7/5 315/7/5
f 320/7/5 316/7/5 319/7/5
f 325/7/5 322/7/5 321/7/5
f 326/7/5 322/7/5 325/7/5
f 327/7/5 324/7/5 323/7/5
f 328/7/5 324/7/5 327/7/5
f 335/6/5 330/6/5 329/6/5
f 336/6/5 332/6/5 331/6/5
f 337/6/5 332/6/5 336/6/5
f 338/6/5 334/6/5 333/6/5
f 339/6/5 337/6/5 336/6/5
f 339/6/5 338/6/5 337/6/5
f 339/6/5 335/6/5 329/6/5
f 339/6/5 336/6/5 335/6/5
f 340/6/5 338/6/5 339/6/5
f 341/6/5 334/6/5 338/6/5
f 341/6/5 338/6/5 340/6/5
f 342/6/5 334/6/5 341/6/5
f 344/6/5 341/6/5 340/6/5
f 345/6/5 341/6/5 344/6/5
f 347/6/5 344/6/5 343/6/5
f 347/6/5 346/6/5 345/6/5
f 347/6/5 345/6/5 344/6/5
f 348/6/5 346/6/5 347/6/5
f 349/6/5 346/6/5 348/6/5
f 350/6/5 346/6/5 349/6/5
f 351/6/5 347/6/5 343/6/5
f 352/6/5 347/6/5 351/6/5
f 353/6/5 349/6/5 348/6/5
f 354/6/5 349/6/5 353/6/5
f 355/6/5 346/6/5 350/6/5
f 356/6/5 346/6/5 355/6/5
f 361/2/5 358/2/5 357/2/5
f 362/2/5 358/2/5 361/2/5
f 363/2/5 360/2/5 359/2/5
f 364/2/5 360/2/5 363/2/5
f 367/2/5 366/2/5 365/2/5
f 368/2/5 366/2/5 367/2/5
f 371/2/5 370/2/5 369/2/5
f 372/2/5 370/2/5 371/2/5
f 377/5/5 374/5/5 373/5/5
f 377/5/5 376/5/5 375/5/5
f 377/5/5 375/5/5 374/5/5
f 378/5/5 376/5/5 377/5/5
f 379/5/5 376/5/5 378/5/5
f 380/5/5 376/5/5 379/5/5
f 381/2/6 382/2/6 383/2/6
f 383/2/6 382/2/6 384/2/6
f 385/2/6 386/2/6 387/2/6
f 387/2/6 386/2/6 388/2/6
f 389/1/6 390/1/6 391/1/6
f 391/1/6 390/1/6 392/1/6
f 392/1/6 390/1/6 393/1/6
f 393/1/6 390/1/6 394/1/6
f 394/1/6 390/1/6 395/1/6
f 395/1/6 390/1/6 396/1/6
f 389/1/6 391/1/6 397/1/6
f 396/1/6 390/1/6 398/1/6
f 389/1/6 397/1/6 399/1/6
f 399/1/6 397/1/6 400/1/6
f 398/1/6 390/1/6 405/1/6
f 405/1/6 390/1/6 406/1/6
f 399/2/6 400/2/6 407/2/6
f 407/2/6 400/2/6 408/2/6
f 403/2/6 404/2/6 409/2/6
f 401/2/6 402/2/6 409/2/6
f 402/2/6 403/2/6 409/2/6
f 409/2/6 404/2/6 410/2/6
f 410/2/6 404/2/6 411/2/6
f 411/2/6 404/2/6 412/2/6
f 405/2/6 406/2/6 413/2/6
f 413/2/6 406/2/6 414/2/6
f 407/1/6 408/1/6 415/1/6
f 413/1/6 414/1/6 416/1/6
f 407/1/6 415/1/6 417/1/6
f 416/1/6 414/1/6 422/1/6
f 420/1/6 421/1/6 423/1/6
f 421/1/6 422/1/6 423/1/6
f 407/1/6 417/1/6 423/1/6
f 417/1/6 418/1/6 423/1/6
f 419/1/6 420/1/6 423/1/6
f 418/1/6 419/1/6 423/1/6
f 422/1/6 414/1/6 424/1/6
f 423/1/6 422/1/6 424/1/6
f 425/5/6 426/5/6 427/5/6
f 427/5/6 426/5/6 428/5/6
f 428/5/6 426/5/6 429/5/6
f 425/5/6 427/5/6 430/5/6
f 425/5/6 430/5/6 431/5/6
f 425/5/6 431/5/6 432/5/6
f 429/5/6 426/5/6 434/5/6
f 432/5/6 433/5/6 435/5/6
f 433/5/6 434/5/6 435/5/6
f 425/5/6 432/5/6 435/5/6
f 434/5/6 426/5/6 436/5/6
f 435/5/6 434/5/6 436/5/6
f 437/4/6 438/4/6 440/4/6
f 438/6/6 439/6/6 441/6/6
f 440/4/6 438/4/6 441/4/6
f 440/5/6 441/5/6 442/5/6
f 441/6/6 439/6/6 443/6/6
f 442/5/6 441/5/6 443/5/6
f 442/3/6 443/3/6 444/3/6
f 443/6/6 439/6/6 445/6/6
f 444/3/6 443/3/6 445/3/6
f 445/6/6 439/6/6 446/6/6
