# MagicaVoxel @ Ephtracy

# group
o 

# material
mtllib Tree.mtl
usemtl palette

# normals
vn -1 0 0
vn 1 0 0
vn 0 0 1
vn 0 0 -1
vn 0 -1 0
vn 0 1 0

# texcoords
vt 0.373047 0.5
vt 0.654297 0.5
vt 0.880859 0.5

# verts
v 0 2.3 0
v 0 2.3 -0.5
v 0 2.7 0
v 0 2.7 -0.5
v 0 2.8 0
v 0 2.8 -0.5
v 0 3.2 0
v 0 3.2 -0.5
v 0 3.3 0
v 0 3.3 -0.5
v 0 3.6 0
v 0 3.6 -0.5
v 0 3.7 0
v 0 3.7 -0.5
v 0 4 0
v 0 4 -0.5
v 0.1 2 -0.1
v 0.1 2 -0.4
v 0.1 2.3 -0.1
v 0.1 2.3 -0.4
v 0.5 2 -0.1
v 0.5 2 -0.4
v 0.5 2.3 -0.1
v 0.5 2.3 -0.4
v 0.6 2.3 0
v 0.6 2.3 -0.5
v 0.6 2.7 0
v 0.6 2.7 -0.5
v 0.6 2.8 0
v 0.6 2.8 -0.5
v 0.6 3.2 0
v 0.6 3.2 -0.5
v 0.6 3.3 0
v 0.6 3.3 -0.5
v 0.6 3.6 0
v 0.6 3.6 -0.5
v 0.6 3.7 0
v 0.6 3.7 -0.5
v 0.6 4 0
v 0.6 4 -0.5
v 0 2.3 0
v 0 2.7 0
v 0 2.8 0
v 0 3.2 0
v 0 3.3 0
v 0 3.6 0
v 0 3.7 0
v 0 4 0
v 0.6 2.3 0
v 0.6 2.7 0
v 0.6 2.8 0
v 0.6 3.2 0
v 0.6 3.3 0
v 0.6 3.6 0
v 0.6 3.7 0
v 0.6 4 0
v 0.1 2 -0.1
v 0.1 2.3 -0.1
v 0.5 2 -0.1
v 0.5 2.3 -0.1
v 0.1 2 -0.4
v 0.1 2.3 -0.4
v 0.5 2 -0.4
v 0.5 2.3 -0.4
v 0 2.3 -0.5
v 0 2.7 -0.5
v 0 2.8 -0.5
v 0 3.2 -0.5
v 0 3.3 -0.5
v 0 3.6 -0.5
v 0 3.7 -0.5
v 0 4 -0.5
v 0.6 2.3 -0.5
v 0.6 2.7 -0.5
v 0.6 2.8 -0.5
v 0.6 3.2 -0.5
v 0.6 3.3 -0.5
v 0.6 3.6 -0.5
v 0.6 3.7 -0.5
v 0.6 4 -0.5
v 0.1 2 -0.1
v 0.5 2 -0.1
v 0.1 2 -0.4
v 0.5 2 -0.4
v 0 2.3 0
v 0.6 2.3 0
v 0.1 2.3 -0.1
v 0.5 2.3 -0.1
v 0.1 2.3 -0.4
v 0.5 2.3 -0.4
v 0 2.3 -0.5
v 0.6 2.3 -0.5
v 0 4 0
v 0.6 4 0
v 0 4 -0.5
v 0.6 4 -0.5

# faces
f 3/3/1 2/3/1 1/3/1
f 4/3/1 2/3/1 3/3/1
f 5/2/1 4/2/1 3/2/1
f 6/2/1 4/2/1 5/2/1
f 7/3/1 6/3/1 5/3/1
f 8/3/1 6/3/1 7/3/1
f 9/2/1 8/2/1 7/2/1
f 10/2/1 8/2/1 9/2/1
f 11/3/1 10/3/1 9/3/1
f 12/3/1 10/3/1 11/3/1
f 13/2/1 12/2/1 11/2/1
f 14/2/1 12/2/1 13/2/1
f 15/3/1 14/3/1 13/3/1
f 16/3/1 14/3/1 15/3/1
f 19/1/1 18/1/1 17/1/1
f 20/1/1 18/1/1 19/1/1
f 21/1/2 22/1/2 23/1/2
f 23/1/2 22/1/2 24/1/2
f 25/3/2 26/3/2 27/3/2
f 27/3/2 26/3/2 28/3/2
f 27/2/2 28/2/2 29/2/2
f 29/2/2 28/2/2 30/2/2
f 29/3/2 30/3/2 31/3/2
f 31/3/2 30/3/2 32/3/2
f 31/2/2 32/2/2 33/2/2
f 33/2/2 32/2/2 34/2/2
f 33/3/2 34/3/2 35/3/2
f 35/3/2 34/3/2 36/3/2
f 35/2/2 36/2/2 37/2/2
f 37/2/2 36/2/2 38/2/2
f 37/3/2 38/3/2 39/3/2
f 39/3/2 38/3/2 40/3/2
f 49/3/3 42/3/3 41/3/3
f 50/2/3 43/2/3 42/2/3
f 50/3/3 42/3/3 49/3/3
f 51/3/3 44/3/3 43/3/3
f 51/2/3 43/2/3 50/2/3
f 52/2/3 45/2/3 44/2/3
f 52/3/3 44/3/3 51/3/3
f 53/3/3 46/3/3 45/3/3
f 53/2/3 45/2/3 52/2/3
f 54/2/3 47/2/3 46/2/3
f 54/3/3 46/3/3 53/3/3
f 55/3/3 48/3/3 47/3/3
f 55/2/3 47/2/3 54/2/3
f 56/3/3 48/3/3 55/3/3
f 59/1/3 58/1/3 57/1/3
f 60/1/3 58/1/3 59/1/3
f 61/1/4 62/1/4 63/1/4
f 63/1/4 62/1/4 64/1/4
f 65/3/4 66/3/4 73/3/4
f 66/2/4 67/2/4 74/2/4
f 73/3/4 66/3/4 74/3/4
f 67/3/4 68/3/4 75/3/4
f 74/2/4 67/2/4 75/2/4
f 68/2/4 69/2/4 76/2/4
f 75/3/4 68/3/4 76/3/4
f 69/3/4 70/3/4 77/3/4
f 76/2/4 69/2/4 77/2/4
f 70/2/4 71/2/4 78/2/4
f 77/3/4 70/3/4 78/3/4
f 71/3/4 72/3/4 79/3/4
f 78/2/4 71/2/4 79/2/4
f 79/3/4 72/3/4 80/3/4
f 83/1/5 82/1/5 81/1/5
f 84/1/5 82/1/5 83/1/5
f 87/3/5 86/3/5 85/3/5
f 88/3/5 86/3/5 87/3/5
f 89/3/5 87/3/5 85/3/5
f 90/3/5 86/3/5 88/3/5
f 91/3/5 89/3/5 85/3/5
f 91/3/5 90/3/5 89/3/5
f 92/3/5 86/3/5 90/3/5
f 92/3/5 90/3/5 91/3/5
f 93/3/6 94/3/6 95/3/6
f 95/3/6 94/3/6 96/3/6
