# MagicaVoxel @ Ephtracy

# group
o 

# material
mtllib log.mtl
usemtl palette

# normals
vn -1 0 0
vn 1 0 0
vn 0 0 1
vn 0 0 -1
vn 0 -1 0
vn 0 1 0

# texcoords
vt 0.373047 0.5
vt 0.396484 0.5
vt 0.537109 0.5

# verts
v 0 2 0
v 0 2 -0.4
v 0 2.1 -0.1
v 0 2.1 -0.3
v 0 2.3 -0.1
v 0 2.3 -0.3
v 0 2.4 0
v 0 2.4 -0.4
v 1 2 0
v 1 2 -0.4
v 1 2.1 -0.1
v 1 2.1 -0.3
v 1 2.3 -0.1
v 1 2.3 -0.3
v 1 2.4 0
v 1 2.4 -0.4
v 0 2 0
v 0 2.4 0
v 0.1 2 0
v 0.1 2.4 0
v 0.2 2.1 0
v 0.2 2.2 0
v 0.5 2.1 0
v 0.5 2.2 0
v 0.5 2.3 0
v 0.5 2.4 0
v 0.8 2.3 0
v 0.8 2.4 0
v 0.9 2 0
v 0.9 2.4 0
v 1 2 0
v 1 2.4 0
v 0 2.1 -0.3
v 0 2.3 -0.3
v 0.1 2.1 -0.3
v 0.1 2.3 -0.3
v 0.4 2.1 -0.3
v 0.4 2.3 -0.3
v 0.6 2.1 -0.3
v 0.6 2.2 -0.3
v 0.8 2.1 -0.3
v 0.8 2.2 -0.3
v 0.9 2.1 -0.3
v 0.9 2.3 -0.3
v 1 2.1 -0.3
v 1 2.3 -0.3
v 0 2.1 -0.1
v 0 2.3 -0.1
v 0.1 2.1 -0.1
v 0.1 2.3 -0.1
v 0.2 2.1 -0.1
v 0.2 2.2 -0.1
v 0.4 2.3 -0.1
v 0.5 2.1 -0.1
v 0.5 2.2 -0.1
v 0.9 2.1 -0.1
v 0.9 2.3 -0.1
v 1 2.1 -0.1
v 1 2.3 -0.1
v 0 2 -0.4
v 0 2.4 -0.4
v 0.1 2 -0.4
v 0.1 2.1 -0.4
v 0.1 2.3 -0.4
v 0.1 2.4 -0.4
v 0.3 2.3 -0.4
v 0.3 2.4 -0.4
v 0.4 2.1 -0.4
v 0.4 2.3 -0.4
v 0.6 2.1 -0.4
v 0.6 2.2 -0.4
v 0.6 2.3 -0.4
v 0.6 2.4 -0.4
v 0.8 2.1 -0.4
v 0.8 2.2 -0.4
v 0.9 2 -0.4
v 0.9 2.4 -0.4
v 1 2 -0.4
v 1 2.4 -0.4
v 0 2 0
v 0.1 2 0
v 0.9 2 0
v 1 2 0
v 0 2 -0.4
v 0.1 2 -0.4
v 0.9 2 -0.4
v 1 2 -0.4
v 0 2.3 -0.1
v 0.1 2.3 -0.1
v 0.4 2.3 -0.1
v 0.9 2.3 -0.1
v 1 2.3 -0.1
v 0.1 2.3 -0.2
v 0.4 2.3 -0.2
v 0 2.3 -0.3
v 0.1 2.3 -0.3
v 0.4 2.3 -0.3
v 0.9 2.3 -0.3
v 1 2.3 -0.3
v 0 2.1 -0.1
v 0.1 2.1 -0.1
v 0.2 2.1 -0.1
v 0.5 2.1 -0.1
v 0.9 2.1 -0.1
v 1 2.1 -0.1
v 0 2.1 -0.3
v 0.1 2.1 -0.3
v 0.4 2.1 -0.3
v 0.6 2.1 -0.3
v 0.8 2.1 -0.3
v 0.9 2.1 -0.3
v 1 2.1 -0.3
v 0 2.4 0
v 0.1 2.4 0
v 0.5 2.4 0
v 0.8 2.4 0
v 0.9 2.4 0
v 1 2.4 0
v 0.1 2.4 -0.1
v 0.4 2.4 -0.1
v 0.5 2.4 -0.1
v 0.8 2.4 -0.1
v 0.1 2.4 -0.2
v 0.4 2.4 -0.2
v 0.3 2.4 -0.3
v 0.6 2.4 -0.3
v 0 2.4 -0.4
v 0.1 2.4 -0.4
v 0.3 2.4 -0.4
v 0.6 2.4 -0.4
v 0.9 2.4 -0.4
v 1 2.4 -0.4

# faces
f 3/1/1 2/1/1 1/1/1
f 4/1/1 2/1/1 3/1/1
f 5/1/1 3/1/1 1/1/1
f 6/1/1 2/1/1 4/1/1
f 7/1/1 5/1/1 1/1/1
f 7/1/1 6/1/1 5/1/1
f 8/1/1 2/1/1 6/1/1
f 8/1/1 6/1/1 7/1/1
f 9/1/2 10/1/2 11/1/2
f 11/1/2 10/1/2 12/1/2
f 9/1/2 11/1/2 13/1/2
f 12/1/2 10/1/2 14/1/2
f 9/1/2 13/1/2 15/1/2
f 13/1/2 14/1/2 15/1/2
f 14/1/2 10/1/2 16/1/2
f 15/1/2 14/1/2 16/1/2
f 19/1/3 18/1/3 17/1/3
f 20/1/3 18/1/3 19/1/3
f 21/3/3 20/3/3 19/3/3
f 22/3/3 20/3/3 21/3/3
f 23/3/3 21/3/3 19/3/3
f 23/2/3 22/2/3 21/2/3
f 24/3/3 20/3/3 22/3/3
f 24/2/3 22/2/3 23/2/3
f 25/3/3 20/3/3 24/3/3
f 26/3/3 20/3/3 25/3/3
f 27/3/3 24/3/3 23/3/3
f 27/3/3 25/3/3 24/3/3
f 27/2/3 26/2/3 25/2/3
f 28/2/3 26/2/3 27/2/3
f 29/3/3 23/3/3 19/3/3
f 29/3/3 27/3/3 23/3/3
f 29/3/3 28/3/3 27/3/3
f 30/3/3 28/3/3 29/3/3
f 31/1/3 30/1/3 29/1/3
f 32/1/3 30/1/3 31/1/3
f 35/1/3 34/1/3 33/1/3
f 36/1/3 34/1/3 35/1/3
f 37/2/3 36/2/3 35/2/3
f 38/2/3 36/2/3 37/2/3
f 39/3/3 38/3/3 37/3/3
f 40/3/3 38/3/3 39/3/3
f 41/2/3 40/2/3 39/2/3
f 42/3/3 38/3/3 40/3/3
f 42/2/3 40/2/3 41/2/3
f 43/3/3 42/3/3 41/3/3
f 44/3/3 38/3/3 42/3/3
f 44/3/3 42/3/3 43/3/3
f 45/1/3 44/1/3 43/1/3
f 46/1/3 44/1/3 45/1/3
f 47/1/4 48/1/4 49/1/4
f 49/1/4 48/1/4 50/1/4
f 49/3/4 50/3/4 51/3/4
f 51/3/4 50/3/4 52/3/4
f 52/3/4 50/3/4 53/3/4
f 51/2/4 52/2/4 54/2/4
f 52/3/4 53/3/4 55/3/4
f 54/2/4 52/2/4 55/2/4
f 54/3/4 55/3/4 56/3/4
f 55/3/4 53/3/4 57/3/4
f 56/3/4 55/3/4 57/3/4
f 56/1/4 57/1/4 58/1/4
f 58/1/4 57/1/4 59/1/4
f 60/1/4 61/1/4 62/1/4
f 62/1/4 61/1/4 63/1/4
f 63/1/4 61/1/4 64/1/4
f 64/1/4 61/1/4 65/1/4
f 63/2/4 64/2/4 66/2/4
f 64/3/4 65/3/4 66/3/4
f 66/3/4 65/3/4 67/3/4
f 62/3/4 63/3/4 68/3/4
f 63/2/4 66/2/4 68/2/4
f 66/2/4 67/2/4 68/2/4
f 68/2/4 67/2/4 69/2/4
f 62/3/4 68/3/4 70/3/4
f 68/3/4 69/3/4 70/3/4
f 70/3/4 69/3/4 71/3/4
f 69/2/4 67/2/4 72/2/4
f 71/3/4 69/3/4 72/3/4
f 72/2/4 67/2/4 73/2/4
f 70/2/4 71/2/4 74/2/4
f 62/3/4 70/3/4 74/3/4
f 72/3/4 73/3/4 75/3/4
f 74/2/4 71/2/4 75/2/4
f 71/3/4 72/3/4 75/3/4
f 62/3/4 74/3/4 76/3/4
f 74/3/4 75/3/4 76/3/4
f 75/3/4 73/3/4 77/3/4
f 76/3/4 75/3/4 77/3/4
f 76/1/4 77/1/4 78/1/4
f 78/1/4 77/1/4 79/1/4
f 84/1/5 81/1/5 80/1/5
f 85/3/5 82/3/5 81/3/5
f 85/1/5 81/1/5 84/1/5
f 86/1/5 83/1/5 82/1/5
f 86/3/5 82/3/5 85/3/5
f 87/1/5 83/1/5 86/1/5
f 93/1/5 89/1/5 88/1/5
f 93/2/5 90/2/5 89/2/5
f 94/3/5 91/3/5 90/3/5
f 94/2/5 90/2/5 93/2/5
f 95/1/5 93/1/5 88/1/5
f 96/3/5 94/3/5 93/3/5
f 96/1/5 93/1/5 95/1/5
f 97/3/5 91/3/5 94/3/5
f 97/3/5 94/3/5 96/3/5
f 98/1/5 92/1/5 91/1/5
f 98/3/5 91/3/5 97/3/5
f 99/1/5 92/1/5 98/1/5
f 100/1/6 101/1/6 106/1/6
f 101/3/6 102/3/6 107/3/6
f 106/1/6 101/1/6 107/1/6
f 102/3/6 103/3/6 107/3/6
f 103/3/6 104/3/6 107/3/6
f 107/3/6 104/3/6 108/3/6
f 108/3/6 104/3/6 109/3/6
f 109/3/6 104/3/6 110/3/6
f 104/1/6 105/1/6 111/1/6
f 110/3/6 104/3/6 111/3/6
f 111/1/6 105/1/6 112/1/6
f 113/1/6 114/1/6 119/1/6
f 114/3/6 115/3/6 119/3/6
f 119/3/6 115/3/6 120/3/6
f 115/2/6 116/2/6 121/2/6
f 120/3/6 115/3/6 121/3/6
f 116/3/6 117/3/6 122/3/6
f 121/2/6 116/2/6 122/2/6
f 119/2/6 120/2/6 123/2/6
f 113/1/6 119/1/6 123/1/6
f 120/3/6 121/3/6 124/3/6
f 123/2/6 120/2/6 124/2/6
f 121/3/6 122/3/6 124/3/6
f 123/3/6 124/3/6 125/3/6
f 124/3/6 122/3/6 126/3/6
f 125/3/6 124/3/6 126/3/6
f 113/1/6 123/1/6 127/1/6
f 123/3/6 125/3/6 128/3/6
f 127/1/6 123/1/6 128/1/6
f 125/2/6 126/2/6 129/2/6
f 128/3/6 125/3/6 129/3/6
f 126/3/6 122/3/6 130/3/6
f 129/2/6 126/2/6 130/2/6
f 117/1/6 118/1/6 131/1/6
f 130/3/6 122/3/6 131/3/6
f 122/3/6 117/3/6 131/3/6
f 131/1/6 118/1/6 132/1/6
