# MagicaVoxel @ Ephtracy

# group
o 

# material
mtllib rail_signal.mtl
usemtl palette

# normals
vn -1 0 0
vn 1 0 0
vn 0 0 1
vn 0 0 -1
vn 0 -1 0
vn 0 1 0

# texcoords
vt 0.841797 0.5
vt 0.873047 0.5
vt 0.958984 0.5
vt 0.962891 0.5
vt 0.994141 0.5

# verts
v 0 2.9 -0.1
v 0 2.9 -0.2
v 0 2.9 -0.3
v 0 2.9 -0.4
v 0 3 0
v 0 3 -0.1
v 0 3 -0.2
v 0 3 -0.3
v 0 3 -0.4
v 0 3 -0.5
v 0 3.2 0
v 0 3.2 -0.5
v 0.2 2 -0.2
v 0.2 2 -0.3
v 0.2 2.1 -0.2
v 0.2 2.1 -0.3
v 0.2 2.2 -0.2
v 0.2 2.2 -0.3
v 0.2 2.4 -0.2
v 0.2 2.4 -0.3
v 0.2 2.5 -0.2
v 0.2 2.5 -0.3
v 0.2 2.7 -0.2
v 0.2 2.7 -0.3
v 0.2 2.8 -0.2
v 0.2 2.8 -0.3
v 0.2 3 -0.2
v 0.2 3 -0.3
v 0.2 3.2 -0.2
v 0.2 3.2 -0.3
v 0.2 3.3 -0.2
v 0.2 3.3 -0.3
v 0.1 2.9 -0.1
v 0.1 2.9 -0.2
v 0.1 2.9 -0.3
v 0.1 2.9 -0.4
v 0.1 3 -0.1
v 0.1 3 -0.2
v 0.1 3 -0.3
v 0.1 3 -0.4
v 0.2 3 0
v 0.2 3 -0.2
v 0.2 3 -0.3
v 0.2 3 -0.5
v 0.2 3.1 -0.2
v 0.2 3.1 -0.3
v 0.2 3.2 0
v 0.2 3.2 -0.2
v 0.2 3.2 -0.3
v 0.2 3.2 -0.5
v 0.3 2 -0.2
v 0.3 2 -0.3
v 0.3 2.1 -0.2
v 0.3 2.1 -0.3
v 0.3 2.2 -0.2
v 0.3 2.2 -0.3
v 0.3 2.4 -0.2
v 0.3 2.4 -0.3
v 0.3 2.5 -0.2
v 0.3 2.5 -0.3
v 0.3 2.7 -0.2
v 0.3 2.7 -0.3
v 0.3 2.8 -0.2
v 0.3 2.8 -0.3
v 0.3 3 -0.2
v 0.3 3 -0.3
v 0.3 3.1 -0.2
v 0.3 3.1 -0.3
v 0.3 3.3 -0.2
v 0.3 3.3 -0.3
v 0 3 0
v 0 3.2 0
v 0.2 3 0
v 0.2 3.2 0
v 0 2.9 -0.1
v 0 3 -0.1
v 0.1 2.9 -0.1
v 0.1 3 -0.1
v 0.2 2 -0.2
v 0.2 2.1 -0.2
v 0.2 2.2 -0.2
v 0.2 2.4 -0.2
v 0.2 2.5 -0.2
v 0.2 2.7 -0.2
v 0.2 2.8 -0.2
v 0.2 3 -0.2
v 0.2 3.1 -0.2
v 0.2 3.2 -0.2
v 0.2 3.3 -0.2
v 0.3 2 -0.2
v 0.3 2.1 -0.2
v 0.3 2.2 -0.2
v 0.3 2.4 -0.2
v 0.3 2.5 -0.2
v 0.3 2.7 -0.2
v 0.3 2.8 -0.2
v 0.3 3 -0.2
v 0.3 3.1 -0.2
v 0.3 3.3 -0.2
v 0 2.9 -0.3
v 0 3 -0.3
v 0.1 2.9 -0.3
v 0.1 3 -0.3
v 0 2.9 -0.2
v 0 3 -0.2
v 0.1 2.9 -0.2
v 0.1 3 -0.2
v 0.2 2 -0.3
v 0.2 2.1 -0.3
v 0.2 2.2 -0.3
v 0.2 2.4 -0.3
v 0.2 2.5 -0.3
v 0.2 2.7 -0.3
v 0.2 2.8 -0.3
v 0.2 3 -0.3
v 0.2 3.1 -0.3
v 0.2 3.2 -0.3
v 0.2 3.3 -0.3
v 0.3 2 -0.3
v 0.3 2.1 -0.3
v 0.3 2.2 -0.3
v 0.3 2.4 -0.3
v 0.3 2.5 -0.3
v 0.3 2.7 -0.3
v 0.3 2.8 -0.3
v 0.3 3 -0.3
v 0.3 3.1 -0.3
v 0.3 3.3 -0.3
v 0 2.9 -0.4
v 0 3 -0.4
v 0.1 2.9 -0.4
v 0.1 3 -0.4
v 0 3 -0.5
v 0 3.2 -0.5
v 0.2 3 -0.5
v 0.2 3.2 -0.5
v 0.2 2 -0.2
v 0.3 2 -0.2
v 0.2 2 -0.3
v 0.3 2 -0.3
v 0 2.9 -0.1
v 0.1 2.9 -0.1
v 0 2.9 -0.2
v 0.1 2.9 -0.2
v 0 2.9 -0.3
v 0.1 2.9 -0.3
v 0 2.9 -0.4
v 0.1 2.9 -0.4
v 0 3 0
v 0.2 3 0
v 0 3 -0.1
v 0.1 3 -0.1
v 0 3 -0.2
v 0.1 3 -0.2
v 0.2 3 -0.2
v 0 3 -0.3
v 0.1 3 -0.3
v 0.2 3 -0.3
v 0 3 -0.4
v 0.1 3 -0.4
v 0 3 -0.5
v 0.2 3 -0.5
v 0 3.2 0
v 0.2 3.2 0
v 0.2 3.2 -0.2
v 0.2 3.2 -0.3
v 0 3.2 -0.5
v 0.2 3.2 -0.5
v 0.2 3.3 -0.2
v 0.3 3.3 -0.2
v 0.2 3.3 -0.3
v 0.3 3.3 -0.3

# faces
f 6/2/1 2/2/1 1/2/1
f 7/2/1 2/2/1 6/2/1
f 8/2/1 4/2/1 3/2/1
f 9/2/1 4/2/1 8/2/1
f 11/5/1 7/5/1 6/5/1
f 11/5/1 10/5/1 9/5/1
f 11/5/1 9/5/1 8/5/1
f 11/5/1 8/5/1 7/5/1
f 11/5/1 6/5/1 5/5/1
f 12/5/1 10/5/1 11/5/1
f 15/1/1 14/1/1 13/1/1
f 16/1/1 14/1/1 15/1/1
f 17/4/1 16/4/1 15/4/1
f 18/4/1 16/4/1 17/4/1
f 19/1/1 18/1/1 17/1/1
f 20/1/1 18/1/1 19/1/1
f 21/3/1 20/3/1 19/3/1
f 22/3/1 20/3/1 21/3/1
f 23/1/1 22/1/1 21/1/1
f 24/1/1 22/1/1 23/1/1
f 25/3/1 24/3/1 23/3/1
f 26/3/1 24/3/1 25/3/1
f 27/1/1 26/1/1 25/1/1
f 28/1/1 26/1/1 27/1/1
f 31/1/1 30/1/1 29/1/1
f 32/1/1 30/1/1 31/1/1
f 33/2/2 34/2/2 37/2/2
f 37/2/2 34/2/2 38/2/2
f 35/2/2 36/2/2 39/2/2
f 39/2/2 36/2/2 40/2/2
f 41/5/2 42/5/2 45/5/2
f 43/5/2 44/5/2 46/5/2
f 41/5/2 45/5/2 47/5/2
f 47/5/2 45/5/2 48/5/2
f 46/5/2 44/5/2 49/5/2
f 49/5/2 44/5/2 50/5/2
f 51/1/2 52/1/2 53/1/2
f 53/1/2 52/1/2 54/1/2
f 53/4/2 54/4/2 55/4/2
f 55/4/2 54/4/2 56/4/2
f 55/1/2 56/1/2 57/1/2
f 57/1/2 56/1/2 58/1/2
f 57/3/2 58/3/2 59/3/2
f 59/3/2 58/3/2 60/3/2
f 59/1/2 60/1/2 61/1/2
f 61/1/2 60/1/2 62/1/2
f 61/3/2 62/3/2 63/3/2
f 63/3/2 62/3/2 64/3/2
f 63/1/2 64/1/2 65/1/2
f 65/1/2 64/1/2 66/1/2
f 65/3/2 66/3/2 67/3/2
f 67/3/2 66/3/2 68/3/2
f 67/1/2 68/1/2 69/1/2
f 69/1/2 68/1/2 70/1/2
f 73/5/3 72/5/3 71/5/3
f 74/5/3 72/5/3 73/5/3
f 77/2/3 76/2/3 75/2/3
f 78/2/3 76/2/3 77/2/3
f 90/1/3 80/1/3 79/1/3
f 91/4/3 81/4/3 80/4/3
f 91/1/3 80/1/3 90/1/3
f 92/1/3 82/1/3 81/1/3
f 92/4/3 81/4/3 91/4/3
f 93/3/3 83/3/3 82/3/3
f 93/1/3 82/1/3 92/1/3
f 94/1/3 84/1/3 83/1/3
f 94/3/3 83/3/3 93/3/3
f 95/3/3 85/3/3 84/3/3
f 95/1/3 84/1/3 94/1/3
f 96/1/3 86/1/3 85/1/3
f 96/3/3 85/3/3 95/3/3
f 97/3/3 87/3/3 86/3/3
f 97/1/3 86/1/3 96/1/3
f 98/1/3 89/1/3 88/1/3
f 98/3/3 87/3/3 97/3/3
f 98/1/3 88/1/3 87/1/3
f 99/1/3 89/1/3 98/1/3
f 102/2/3 101/2/3 100/2/3
f 103/2/3 101/2/3 102/2/3
f 104/2/4 105/2/4 106/2/4
f 106/2/4 105/2/4 107/2/4
f 108/1/4 109/1/4 119/1/4
f 109/4/4 110/4/4 120/4/4
f 119/1/4 109/1/4 120/1/4
f 110/1/4 111/1/4 121/1/4
f 120/4/4 110/4/4 121/4/4
f 111/3/4 112/3/4 122/3/4
f 121/1/4 111/1/4 122/1/4
f 112/1/4 113/1/4 123/1/4
f 122/3/4 112/3/4 123/3/4
f 113/3/4 114/3/4 124/3/4
f 123/1/4 113/1/4 124/1/4
f 114/1/4 115/1/4 125/1/4
f 124/3/4 114/3/4 125/3/4
f 115/3/4 116/3/4 126/3/4
f 125/1/4 115/1/4 126/1/4
f 117/1/4 118/1/4 127/1/4
f 126/3/4 116/3/4 127/3/4
f 116/1/4 117/1/4 127/1/4
f 127/1/4 118/1/4 128/1/4
f 129/2/4 130/2/4 131/2/4
f 131/2/4 130/2/4 132/2/4
f 133/5/4 134/5/4 135/5/4
f 135/5/4 134/5/4 136/5/4
f 139/1/5 138/1/5 137/1/5
f 140/1/5 138/1/5 139/1/5
f 143/2/5 142/2/5 141/2/5
f 144/2/5 142/2/5 143/2/5
f 147/2/5 146/2/5 145/2/5
f 148/2/5 146/2/5 147/2/5
f 151/5/5 150/5/5 149/5/5
f 152/5/5 150/5/5 151/5/5
f 154/5/5 150/5/5 152/5/5
f 155/5/5 150/5/5 154/5/5
f 156/5/5 154/5/5 153/5/5
f 156/5/5 155/5/5 154/5/5
f 157/5/5 155/5/5 156/5/5
f 158/5/5 155/5/5 157/5/5
f 160/5/5 158/5/5 157/5/5
f 161/5/5 160/5/5 159/5/5
f 162/5/5 158/5/5 160/5/5
f 162/5/5 160/5/5 161/5/5
f 163/5/6 164/5/6 165/5/6
f 163/5/6 165/5/6 166/5/6
f 163/5/6 166/5/6 167/5/6
f 167/5/6 166/5/6 168/5/6
f 169/1/6 170/1/6 171/1/6
f 171/1/6 170/1/6 172/1/6
