# MagicaVoxel @ Ephtracy

# group
o 

# material
mtllib road_edge.mtl
usemtl palette

# normals
vn -1 0 0
vn 1 0 0
vn 0 0 1
vn 0 0 -1
vn 0 -1 0
vn 0 1 0

# texcoords
vt 0.0175781 0.5
vt 0.873047 0.5
vt 0.958984 0.5
vt 0.994141 0.5

# verts
v 0 2 0
v 0 2 -0.4
v 0 2 -0.9
v 0 2 -1
v 0 2.1 0
v 0 2.1 -0.4
v 0 2.1 -0.9
v 0 2.1 -1
v 1 2 0
v 1 2 -0.4
v 1 2 -0.9
v 1 2 -1
v 1 2.1 0
v 1 2.1 -0.4
v 1 2.1 -0.9
v 1 2.1 -1
v 0 2 0
v 0 2.1 0
v 1 2 0
v 1 2.1 0
v 0 2 -1
v 0 2.1 -1
v 1 2 -1
v 1 2.1 -1
v 0 2 0
v 1 2 0
v 0 2 -0.4
v 0.3 2 -0.4
v 0.7 2 -0.4
v 1 2 -0.4
v 0.3 2 -0.5
v 0.7 2 -0.5
v 0 2 -0.9
v 1 2 -0.9
v 0 2 -1
v 1 2 -1
v 0 2.1 0
v 1 2.1 0
v 0 2.1 -0.4
v 0.3 2.1 -0.4
v 0.7 2.1 -0.4
v 1 2.1 -0.4
v 0.3 2.1 -0.5
v 0.7 2.1 -0.5
v 0 2.1 -0.9
v 1 2.1 -0.9
v 0 2.1 -1
v 1 2.1 -1

# faces
f 5/2/1 2/2/1 1/2/1
f 6/4/1 3/4/1 2/4/1
f 6/2/1 2/2/1 5/2/1
f 7/3/1 4/3/1 3/3/1
f 7/4/1 3/4/1 6/4/1
f 8/3/1 4/3/1 7/3/1
f 9/2/2 10/2/2 13/2/2
f 10/4/2 11/4/2 14/4/2
f 13/2/2 10/2/2 14/2/2
f 11/3/2 12/3/2 15/3/2
f 14/4/2 11/4/2 15/4/2
f 15/3/2 12/3/2 16/3/2
f 19/2/3 18/2/3 17/2/3
f 20/2/3 18/2/3 19/2/3
f 21/3/4 22/3/4 23/3/4
f 23/3/4 22/3/4 24/3/4
f 27/2/5 26/2/5 25/2/5
f 28/2/5 26/2/5 27/2/5
f 29/2/5 26/2/5 28/2/5
f 30/2/5 26/2/5 29/2/5
f 31/4/5 28/4/5 27/4/5
f 31/1/5 29/1/5 28/1/5
f 32/4/5 30/4/5 29/4/5
f 32/1/5 29/1/5 31/1/5
f 33/4/5 31/4/5 27/4/5
f 33/4/5 32/4/5 31/4/5
f 34/4/5 30/4/5 32/4/5
f 34/4/5 32/4/5 33/4/5
f 35/3/5 34/3/5 33/3/5
f 36/3/5 34/3/5 35/3/5
f 37/2/6 38/2/6 39/2/6
f 39/2/6 38/2/6 40/2/6
f 40/2/6 38/2/6 41/2/6
f 41/2/6 38/2/6 42/2/6
f 39/4/6 40/4/6 43/4/6
f 40/1/6 41/1/6 43/1/6
f 41/4/6 42/4/6 44/4/6
f 43/1/6 41/1/6 44/1/6
f 39/4/6 43/4/6 45/4/6
f 43/4/6 44/4/6 45/4/6
f 44/4/6 42/4/6 46/4/6
f 45/4/6 44/4/6 46/4/6
f 45/3/6 46/3/6 47/3/6
f 47/3/6 46/3/6 48/3/6
